<?xml version="1.0" encoding="UTF-8"?>
<svg version="1.1" xmlns="http://www.w3.org/2000/svg" width="173" height="180">
<path d="M0 0 C57.09 0 114.18 0 173 0 C173 59.4 173 118.8 173 180 C115.91 180 58.82 180 0 180 C0 120.6 0 61.2 0 0 Z " fill="#FAFBFB" transform="translate(0,0)"/>
<path d="M0 0 C57.09 0 114.18 0 173 0 C173 59.4 173 118.8 173 180 C115.91 180 58.82 180 0 180 C0 120.6 0 61.2 0 0 Z M42 19 C41.15824219 19.46019531 40.31648438 19.92039062 39.44921875 20.39453125 C23.75225779 29.8930579 12.83162547 45.89664616 7 63 C6.73960938 63.75506836 6.47921875 64.51013672 6.2109375 65.28808594 C3.73893813 73.21078534 3.55071589 80.74621001 3.625 89 C3.61339844 90.2890625 3.60179687 91.578125 3.58984375 92.90625 C3.62330635 103.88198226 5.81157914 113.11176064 10.3125 123.0625 C10.62026367 123.74731445 10.92802734 124.43212891 11.24511719 125.13769531 C20.45785518 145.28402328 35.89712977 160.86186508 56.92480469 168.71923828 C64.81718711 171.51847895 72.57739848 173.7790793 81 174 C81.84820312 174.061875 82.69640625 174.12375 83.5703125 174.1875 C106.09127286 175.19121968 126.54602144 166.14285129 143.05859375 151.28515625 C150.20034613 144.62182006 155.38285459 137.65311167 160 129 C160.48082031 128.10796875 160.96164063 127.2159375 161.45703125 126.296875 C170.66840824 107.70714741 172.62785856 83.7664757 166 64 C162.55423269 54.53882024 158.38191671 45.8567294 152 38 C151.34515625 37.18273437 150.6903125 36.36546875 150.015625 35.5234375 C136.2639801 19.31255683 118.09991504 9.67215173 97 7 C76.19885609 5.82044795 60.19233453 8.84431369 42 19 Z " fill="#FDFDFD" transform="translate(0,0)"/>
<path d="M0 0 C2.83253187 0.25213825 4.3634263 0.79914177 7 2.0625 C9.55595935 5.33732291 9.61393373 7.43544616 9.33984375 11.5 C8.85683807 14.52017344 8.52009525 15.79220345 6 17.625 C3.73835581 18.04477487 1.55176734 18.25047216 -0.74609375 18.3515625 C-4.67214767 18.8278602 -7.31212904 20.7127478 -10.25 23.25 C-11.1575 24.03375 -12.065 24.8175 -13 25.625 C-11.62369461 28.58935008 -10.00992457 31.05229656 -8 33.625 C-5.99007543 36.19770344 -4.37630539 38.66064992 -3 41.625 C-1.02 41.625 0.96 41.625 3 41.625 C5.88703047 48.36992075 8.65994173 55.15961007 11.3125 62 C11.57885254 62.66515625 11.84520508 63.3303125 12.11962891 64.015625 C13.65193885 68.0239788 14.49592209 71.3392535 14 75.625 C12.64816038 78.13261089 11.05221664 79.57278336 9 81.625 C8.34 81.625 7.68 81.625 7 81.625 C7.103125 82.65625 7.20625 83.6875 7.3125 84.75 C6.91401026 89.69127281 5.62705745 91.30662829 2 94.625 C-0.32548007 95.31856423 -2.65880445 95.98649212 -5 96.625 C-6.35827971 98.27139965 -7.69254251 99.93795807 -9 101.625 C-11 102.29166667 -13 102.95833333 -15 103.625 C-15.61875 104.429375 -16.2375 105.23375 -16.875 106.0625 C-19.09942466 108.74489444 -19.78230567 109.07171001 -22.9375 110.0625 C-27.47380535 111.52090097 -29.27139242 113.78789559 -32 117.625 C-36.38462134 117.12390042 -38.8000997 115.64204885 -42 112.625 C-42 111.965 -42 111.305 -42 110.625 C-43.2375 110.686875 -44.475 110.74875 -45.75 110.8125 C-48.69257586 110.81771733 -49.85646327 110.7039452 -52.5 109.25 C-54 107.625 -54 107.625 -54 105.625 C-54.7425 105.728125 -55.485 105.83125 -56.25 105.9375 C-59 105.625 -59 105.625 -61 103.3125 C-61.99 101.9821875 -61.99 101.9821875 -63 100.625 C-64.64142963 99.5840934 -66.30712215 98.57995674 -68 97.625 C-69.8125 96.1875 -69.8125 96.1875 -71 94.625 C-71 93.305 -71 91.985 -71 90.625 C-71.763125 90.7075 -72.52625 90.79 -73.3125 90.875 C-76 90.625 -76 90.625 -77.6875 89 C-79.18410978 86.29184897 -80.02279276 83.55662171 -81 80.625 C-82.91654773 77.48883098 -84.60606022 76.02938887 -88 74.625 C-87.41451694 70.6240153 -86.55723494 66.96335966 -85.22265625 63.1484375 C-84.69961914 61.64796875 -84.69961914 61.64796875 -84.16601562 60.1171875 C-83.80185547 59.08851562 -83.43769531 58.05984375 -83.0625 57 C-82.70220703 55.96359375 -82.34191406 54.9271875 -81.97070312 53.859375 C-79.03917415 45.50208797 -79.03917415 45.50208797 -77 41.625 C-75.96617188 41.74359375 -74.93234375 41.8621875 -73.8671875 41.984375 C-68.94774429 41.52721462 -67.12977577 39.48408822 -64.125 35.875 C-63.6403125 35.33617187 -63.155625 34.79734375 -62.65625 34.2421875 C-59.176016 30.42946249 -59.176016 30.42946249 -58 25.625 C-59.76086893 22.65122484 -62.14890826 20.54961489 -65 18.625 C-67.36526568 18.08617901 -69.55782631 17.94347473 -71.9765625 17.83203125 C-74 17.625 -74 17.625 -76.5625 16.125 C-78.66973014 12.46025192 -78.84449766 8.75619127 -78 4.625 C-76.734375 2.859375 -76.734375 2.859375 -75 1.625 C-72.27492202 1.23421444 -69.76878044 1.48883047 -67 1.625 C-67.825 2.346875 -68.65 3.06875 -69.5 3.8125 C-72.24407806 6.35417366 -72.24407806 6.35417366 -72.3125 9.4375 C-72.1578125 10.5203125 -72.1578125 10.5203125 -72 11.625 C-68.95086772 12.63611093 -68.95086772 12.63611093 -66 11.625 C-65.34444881 9.09766765 -65.34444881 9.09766765 -65 6.625 C-63 7.625 -63 7.625 -61 9.625 C-61.375 12.75 -61.375 12.75 -62 15.625 C-61.4225 15.8725 -60.845 16.12 -60.25 16.375 C-57.6997003 17.79183317 -55.98214299 19.50127537 -54 21.625 C-50.49141444 20.06562864 -47.65524644 18.42377327 -45 15.625 C-44.6647263 13.5015637 -44.6647263 13.5015637 -44.625 11.1875 C-44.46046273 8.49264635 -44.35093261 7.07427656 -42.67578125 4.9296875 C-39.55960599 2.47876314 -36.78119096 1.30032418 -32.8125 1.0625 C-29 1.625 -29 1.625 -26.5 3 C-24.78657282 5.99849756 -24.93222617 7.13153104 -25.125 10.5 C-25.32574512 14.29430955 -25.32574512 14.29430955 -23.6796875 17.609375 C-21.85061224 19.45269918 -21.85061224 19.45269918 -19 21.625 C-14.11741505 20.22997573 -11.77633182 17.82915961 -9 13.625 C-9 12.47 -9 11.315 -9 10.125 C-9 6.625 -9 6.625 -7 3.1875 C-3.492891 0.19184439 -3.492891 0.19184439 0 0 Z " fill="#0D1532" transform="translate(121,35.375)"/>
<path d="M0 0 C0.7528125 0.20496094 1.505625 0.40992188 2.28125 0.62109375 C22.36193627 6.47796058 39.04758982 20.40273125 49.19897461 38.55908203 C59.87287423 58.44492251 62.81220639 82.44225248 56.39453125 104.2578125 C48.16481546 126.34203583 34.51181695 143.3678611 14 155 C13.13246094 155.50273437 12.26492187 156.00546875 11.37109375 156.5234375 C-6.94725587 165.98361805 -29.194145 165.79702291 -48.5625 160.25 C-58.91424532 156.8660157 -67.74869886 152.08709639 -76 145 C-76.82371094 144.32066406 -77.64742187 143.64132813 -78.49609375 142.94140625 C-89.93231277 133.17623293 -96.11753672 121.55845049 -102 108 C-102.36351563 107.19304687 -102.72703125 106.38609375 -103.1015625 105.5546875 C-109.25752642 88.05033792 -108.56659368 63.97760081 -101 47 C-100.58186035 46.03368652 -100.58186035 46.03368652 -100.15527344 45.04785156 C-95.72938181 35.1226793 -89.72321479 27.55958736 -82 20 C-81.23171875 19.19949219 -80.4634375 18.39898438 -79.671875 17.57421875 C-69.06936885 7.13399586 -55.32211242 1.29153883 -41 -2 C-40.38801758 -2.1743457 -39.77603516 -2.34869141 -39.14550781 -2.52832031 C-26.94306645 -5.210969 -11.8059083 -3.82269621 0 0 Z M-74 24 C-75.46179688 25.1446875 -75.46179688 25.1446875 -76.953125 26.3125 C-83.94371827 32.13799439 -89.58642341 41.62122109 -93 50 C-92.33425306 53.13150053 -92.33425306 53.13150053 -89.86694336 54.16674805 C-88.95050049 54.52808838 -88.03405762 54.88942871 -87.08984375 55.26171875 C-85.60581055 55.85629883 -85.60581055 55.85629883 -84.09179688 56.46289062 C-82.53041992 57.06907227 -82.53041992 57.06907227 -80.9375 57.6875 C-79.89271484 58.10322266 -78.84792969 58.51894531 -77.77148438 58.94726562 C-75.18476236 59.97486752 -72.59437206 60.99190295 -70 62 C-70.5844229 66.14221205 -71.5285378 69.79475397 -73.03125 73.6953125 C-73.42957031 74.74074219 -73.82789062 75.78617187 -74.23828125 76.86328125 C-74.86283203 78.47783203 -74.86283203 78.47783203 -75.5 80.125 C-76.3248572 82.27269321 -77.14785276 84.42110258 -77.96875 86.5703125 C-78.33419922 87.51664551 -78.69964844 88.46297852 -79.07617188 89.43798828 C-79.86242862 91.61847936 -80.49259176 93.74123638 -81 96 C-84.16552079 95.52037564 -86.60264975 94.73567994 -89.5625 93.4375 C-92.99405914 91.74279591 -92.99405914 91.74279591 -97 92 C-94.17126998 106.22447094 -88.99936272 119.33039015 -79 130 C-78.2265625 130.85207031 -77.453125 131.70414062 -76.65625 132.58203125 C-71.02169668 138.52862471 -65.11069279 142.96303134 -58 147 C-57.05447266 147.58201172 -57.05447266 147.58201172 -56.08984375 148.17578125 C-41.53209222 156.46250135 -22.12016718 157.145281 -6.0625 153.875 C14.16078983 148.23129121 30.57038011 136.53467415 41.20703125 118.33984375 C45.50176302 110.3398532 48.54397971 103.12040587 49 94 C42.31006781 94.53951066 36.36539272 95.88706171 30 98 C29.84144531 97.44054687 29.68289062 96.88109375 29.51953125 96.3046875 C26.10706779 84.57787937 21.82642094 73.21372696 17 62 C17.53947266 61.82331787 18.07894531 61.64663574 18.63476562 61.46459961 C24.29472835 59.59639824 29.91608573 57.64722296 35.5 55.5625 C36.30953125 55.27568359 37.1190625 54.98886719 37.953125 54.69335938 C38.72140625 54.40396484 39.4896875 54.11457031 40.28125 53.81640625 C40.97283203 53.56318604 41.66441406 53.30996582 42.37695312 53.04907227 C44.16786213 52.10811518 44.16786213 52.10811518 44.80712891 50.07373047 C45.36134388 44.11486715 39.21265385 36.73582091 35.55029297 32.20751953 C22.91837372 17.81790457 4.96502896 6.8942913 -14.3828125 5.16796875 C-15.24648437 5.11253906 -16.11015625 5.05710937 -17 5 C-18.00804688 4.93425781 -19.01609375 4.86851563 -20.0546875 4.80078125 C-40.12099486 4.12881484 -58.87684804 10.80430859 -74 24 Z " fill="#0B1943" transform="translate(110,10)"/>
<path d="M0 0 C1.60488281 0.00483398 1.60488281 0.00483398 3.2421875 0.00976562 C4.35335937 0.01814453 5.46453125 0.02652344 6.609375 0.03515625 C8.29933594 0.04192383 8.29933594 0.04192383 10.0234375 0.04882812 C12.80213717 0.06060228 15.58072909 0.07704785 18.359375 0.09765625 C18.359375 0.42765625 18.359375 0.75765625 18.359375 1.09765625 C15.059375 1.09765625 11.759375 1.09765625 8.359375 1.09765625 C8.359375 3.40765625 8.359375 5.71765625 8.359375 8.09765625 C7.12703125 8.2678125 5.8946875 8.43796875 4.625 8.61328125 C-15.04518817 11.44094547 -31.17039528 16.81818285 -45.640625 31.09765625 C-46.5275 31.88140625 -47.414375 32.66515625 -48.328125 33.47265625 C-52.83172937 38.58485581 -60.640625 47.89132103 -60.640625 55.09765625 C-59.9794165 55.3493457 -59.31820801 55.60103516 -58.63696289 55.86035156 C-55.65255407 57.00672601 -52.67800545 58.17679029 -49.703125 59.34765625 C-48.66220703 59.74339844 -47.62128906 60.13914063 -46.54882812 60.546875 C-45.06479492 61.13662109 -45.06479492 61.13662109 -43.55078125 61.73828125 C-42.17611694 62.27243652 -42.17611694 62.27243652 -40.77368164 62.81738281 C-38.640625 64.09765625 -38.640625 64.09765625 -37.70751953 65.86254883 C-37.61357564 69.00144039 -38.54193908 71.28800067 -39.66015625 74.21875 C-40.10552734 75.40146484 -40.55089844 76.58417969 -41.00976562 77.80273438 C-41.49067699 79.04695558 -41.97179872 80.2910955 -42.453125 81.53515625 C-42.91783203 82.76298828 -43.38253906 83.99082031 -43.86132812 85.25585938 C-45.74507367 90.22062347 -47.65796551 95.17151437 -49.640625 100.09765625 C-53.42302171 99.44075006 -56.85904026 98.37752525 -60.453125 97.03515625 C-61.42894531 96.67292969 -62.40476562 96.31070313 -63.41015625 95.9375 C-64.14621094 95.66035156 -64.88226563 95.38320312 -65.640625 95.09765625 C-57.74034654 119.07686896 -47.72393228 137.84441194 -24.640625 150.09765625 C-12.01850458 156.09568788 0.58370117 157.62432149 14.359375 158.09765625 C14.359375 158.42765625 14.359375 158.75765625 14.359375 159.09765625 C12.379375 159.09765625 10.399375 159.09765625 8.359375 159.09765625 C8.359375 161.40765625 8.359375 163.71765625 8.359375 166.09765625 C10.339375 166.09765625 12.319375 166.09765625 14.359375 166.09765625 C14.359375 166.42765625 14.359375 166.75765625 14.359375 167.09765625 C-7.31402849 167.80057744 -27.98758116 162.40106427 -44.640625 148.09765625 C-45.46433594 147.41832031 -46.28804687 146.73898438 -47.13671875 146.0390625 C-58.57293777 136.27388918 -64.75816172 124.65610674 -70.640625 111.09765625 C-71.00414063 110.29070312 -71.36765625 109.48375 -71.7421875 108.65234375 C-77.89815142 91.14799417 -77.20721868 67.07525706 -69.640625 50.09765625 C-69.22248535 49.13134277 -69.22248535 49.13134277 -68.79589844 48.14550781 C-64.37000681 38.22033555 -58.36383979 30.65724361 -50.640625 23.09765625 C-49.87234375 22.29714844 -49.1040625 21.49664063 -48.3125 20.671875 C-37.70999385 10.23165211 -23.96273742 4.38919508 -9.640625 1.09765625 C-8.73679077 0.83287476 -8.73679077 0.83287476 -7.81469727 0.56274414 C-5.16228351 -0.00467284 -2.71244437 -0.0144279 0 0 Z " fill="#0E7B53" transform="translate(78.640625,6.90234375)"/>
<path d="M0 0 C2.83253187 0.25213825 4.3634263 0.79914177 7 2.0625 C9.55595935 5.33732291 9.61393373 7.43544616 9.33984375 11.5 C8.85683807 14.52017344 8.52009525 15.79220345 6 17.625 C3.73835581 18.04477487 1.55176734 18.25047216 -0.74609375 18.3515625 C-4.67214767 18.8278602 -7.31212904 20.7127478 -10.25 23.25 C-11.1575 24.03375 -12.065 24.8175 -13 25.625 C-11.82548531 28.40112564 -10.33031986 30.4900269 -8.375 32.75 C-6 35.625 -6 35.625 -6 37.625 C-6.99 37.625 -7.98 37.625 -9 37.625 C-9 38.615 -9 39.605 -9 40.625 C-23.23076923 36.00961538 -23.23076923 36.00961538 -28 33.625 C-30.64225405 34.94365712 -30.64225405 34.94365712 -33 36.625 C-33 36.955 -33 37.285 -33 37.625 C-30.36 37.955 -27.72 38.285 -25 38.625 C-25 39.285 -25 39.945 -25 40.625 C-23.2557265 41.38691579 -21.51136677 42.14863471 -19.76660156 42.90942383 C-18.29128399 43.5557332 -16.8179788 44.20665483 -15.34667969 44.86206055 C-12.27645108 46.22528289 -9.25367738 47.53795716 -6.07421875 48.62890625 C-2.65265845 49.8192642 -0.61550876 50.62343249 1.3203125 53.7734375 C2.39502699 56.36071313 3.21555259 58.93659228 4 61.625 C4.30808594 62.44226563 4.61617188 63.25953125 4.93359375 64.1015625 C7.67220294 71.38017715 7.67220294 71.38017715 6 75.625 C5.34 76.285 4.68 76.945 4 77.625 C0.62288242 77.30173213 -1.0190893 75.96538138 -3.3125 73.5625 C-3.91707031 72.93214844 -4.52164063 72.30179687 -5.14453125 71.65234375 C-6.96053526 69.66812042 -8.73750259 67.65682285 -10.5 65.625 C-19.76797363 54.6854297 -19.76797363 54.6854297 -32.5 48.9375 C-38.1761925 50.05246638 -41.9837855 53.6087855 -46 57.625 C-48.625 57.25 -48.625 57.25 -51 56.625 C-50.50168276 52.93745243 -49.89932357 51.02009338 -47 48.625 C-47.515625 47.5525 -48.03125 46.48 -48.5625 45.375 C-50.00603317 42.37245101 -50.05818094 40.79253501 -49 37.625 C-50.15628906 37.96724609 -50.15628906 37.96724609 -51.3359375 38.31640625 C-52.33882812 38.60386719 -53.34171875 38.89132813 -54.375 39.1875 C-55.87160156 39.62255859 -55.87160156 39.62255859 -57.3984375 40.06640625 C-60 40.625 -60 40.625 -62 39.625 C-60.79201323 38.08728979 -59.55777086 36.57017544 -58.3125 35.0625 C-57.62800781 34.21558594 -56.94351563 33.36867187 -56.23828125 32.49609375 C-54 30.625 -54 30.625 -51.23046875 30.84765625 C-50.12638672 31.23244141 -50.12638672 31.23244141 -49 31.625 C-49 32.285 -49 32.945 -49 33.625 C-48.01 33.625 -47.02 33.625 -46 33.625 C-46 32.305 -46 30.985 -46 29.625 C-46.99 29.295 -47.98 28.965 -49 28.625 C-49 27.305 -49 25.985 -49 24.625 C-48.34 24.625 -47.68 24.625 -47 24.625 C-46.731875 24.026875 -46.46375 23.42875 -46.1875 22.8125 C-45.01506533 20.65275192 -43.80630718 19.26709744 -42 17.625 C-42.66 17.625 -43.32 17.625 -44 17.625 C-45.04692936 8.13616409 -45.04692936 8.13616409 -42.72265625 4.78125 C-39.62450832 2.36455411 -36.72775068 1.31225333 -32.8125 1.0625 C-29 1.625 -29 1.625 -26.5 3 C-24.78657282 5.99849756 -24.93222617 7.13153104 -25.125 10.5 C-25.32574512 14.29430955 -25.32574512 14.29430955 -23.6796875 17.609375 C-21.85061224 19.45269918 -21.85061224 19.45269918 -19 21.625 C-14.11741505 20.22997573 -11.77633182 17.82915961 -9 13.625 C-9 12.47 -9 11.315 -9 10.125 C-9 6.625 -9 6.625 -7 3.1875 C-3.492891 0.19184439 -3.492891 0.19184439 0 0 Z " fill="#0E1842" transform="translate(121,35.375)"/>
<path d="M0 0 C-0.51691406 0.4846875 -1.03382812 0.969375 -1.56640625 1.46875 C-5.4631163 5.27553251 -5.4631163 5.27553251 -7.3828125 10.20703125 C-7.09187831 13.34330184 -6.3226167 15.59052496 -4.375 18.0625 C-0.85832877 19.4506597 1.36619407 18.93977739 5 18 C8.11211359 16.23084477 8.11211359 16.23084477 11 14 C16.43504986 9.97806311 16.43504986 9.97806311 18.8359375 10.07128906 C22.00787545 11.43253139 24.12752492 13.7398354 26.5 16.171875 C27.01755859 16.69130676 27.53511719 17.21073853 28.06835938 17.74591064 C29.16107783 18.84534325 30.25019653 19.94836376 31.3359375 21.0546875 C32.9871573 22.73691612 34.64866801 24.40837892 36.3125 26.078125 C37.37562253 27.15042482 38.4381423 28.22332265 39.5 29.296875 C39.99177734 29.79290222 40.48355469 30.28892944 40.99023438 30.79998779 C43.85870125 33.72743134 46.6306438 36.6504637 49 40 C48.75 42.8125 48.75 42.8125 48 45 C42.8857576 44.33857373 40.06271533 40.47702641 36.53515625 37.03125 C33.36187419 34.48871276 30.9869516 34 27 34 C29.29944757 38.59889514 32.60514182 41.62269661 36.35546875 45.03515625 C38 47 38 47 38 51 C35.78515625 51.78125 35.78515625 51.78125 33 52 C30.68359375 50.09375 30.68359375 50.09375 28.4375 47.5 C26.29815005 44.9182301 26.29815005 44.9182301 24 43 C21.7561065 43.09140495 21.7561065 43.09140495 20 44 C21.18085967 47.07023515 22.78856342 48.78346645 25.1875 50.9375 C26.80078125 52.47265625 26.80078125 52.47265625 28 54 C27.875 56.875 27.875 56.875 27 59 C23.5750609 58.70401761 22.20801645 58.198896 19.68359375 55.78515625 C18.57177734 54.43744141 18.57177734 54.43744141 17.4375 53.0625 C14.54366966 49.43780547 14.54366966 49.43780547 10.76953125 46.91015625 C10.18558594 46.60980469 9.60164063 46.30945313 9 46 C8.25 42.375 8.25 42.375 8 39 C6.741875 38.7525 5.48375 38.505 4.1875 38.25 C0.19784455 37.28386393 0.19784455 37.28386393 -1.4375 34.9375 C-3.37467741 32.53540001 -4.3187102 32.48238806 -7.3125 32 C-12.01719422 31.65631292 -14.32408148 33.0079733 -18 36 C-19.3191582 36.69429379 -20.64649406 37.37530495 -22 38 C-22.5878125 36.63875 -22.5878125 36.63875 -23.1875 35.25 C-24.7660733 31.86754653 -24.7660733 31.86754653 -27.75 30.0625 C-28.4925 29.381875 -29.235 28.70125 -30 28 C-29.46685143 19.99271204 -26.91548359 11.98115634 -23 5 C-20.37973473 3.45309641 -18.68659512 3.26651267 -15.66796875 3.15234375 C-11.75550894 2.92893829 -8.6588618 1.31052631 -5.12890625 -0.29296875 C-3 -1 -3 -1 0 0 Z " fill="#EFB41C" transform="translate(71,80)"/>
<path d="M0 0 C5.78461538 4.30769231 5.78461538 4.30769231 6.875 7.8125 C6.936875 8.8953125 6.936875 8.8953125 7 10 C7.55429687 9.57847656 8.10859375 9.15695313 8.6796875 8.72265625 C9.76636719 7.90087891 9.76636719 7.90087891 10.875 7.0625 C11.59429687 6.51722656 12.31359375 5.97195312 13.0546875 5.41015625 C16.14995488 3.16639817 17.67418078 2.87922963 21.4375 3.25 C22.61119141 3.35054688 22.61119141 3.35054688 23.80859375 3.453125 C26.39012962 4.09735855 27.38993756 4.90847194 29 7 C29 7.66 29 8.32 29 9 C30.11375 8.87625 30.11375 8.87625 31.25 8.75 C34 9 34 9 36.3125 10.6875 C38.28544288 13.39116247 38.36337162 14.72965541 38 18 C38.57363281 18.08507812 39.14726563 18.17015625 39.73828125 18.2578125 C42.6511081 19.21366242 44.05458488 20.69006256 46.1875 22.875 C46.88230469 23.57367188 47.57710937 24.27234375 48.29296875 24.9921875 C50 27 50 27 51 30 C49.125 29.6875 49.125 29.6875 47 29 C46.34 28.01 45.68 27.02 45 26 C41.62169447 27.44784523 39.35038972 29.16332276 37 32 C36.20318682 34.64184541 36.20318682 34.64184541 36 37 C33.03 37 30.06 37 27 37 C26.34 35.68 25.68 34.36 25 33 C23.88625 33.1546875 23.88625 33.1546875 22.75 33.3125 C20 33 20 33 18 30.6875 C17.34 29.800625 16.68 28.91375 16 28 C14.35857037 26.9590934 12.69287785 25.95495674 11 25 C9.1875 23.5625 9.1875 23.5625 8 22 C8 20.68 8 19.36 8 18 C7.236875 18.0825 6.47375 18.165 5.6875 18.25 C3 18 3 18 1.3125 16.375 C-0.18703876 13.66154891 -1.0385911 10.94431474 -2 8 C-2.9563874 6.30792999 -3.94410931 4.63183107 -5 3 C-3.68 2.34 -2.36 1.68 -1 1 C-0.896875 1.639375 -0.79375 2.27875 -0.6875 2.9375 C-0.460625 3.618125 -0.23375 4.29875 0 5 C0.99 5.33 1.98 5.66 3 6 C2.34 5.34 1.68 4.68 1 4 C0.375 1.875 0.375 1.875 0 0 Z " fill="#18203E" transform="translate(42,108)"/>
<path d="M0 0 C2.42610667 0.94396319 4.79139763 1.97423942 7.16064453 3.05273438 C7.95535156 3.40078125 8.75005859 3.74882813 9.56884766 4.10742188 C11.16310724 4.80791022 12.75273361 5.519044 14.33740234 6.2409668 C15.95677291 6.96166293 17.59282762 7.64576854 19.24169922 8.29614258 C25.31516993 10.74297776 25.31516993 10.74297776 27.37158203 13.56445312 C27.61134766 14.36496094 27.85111328 15.16546875 28.09814453 15.99023438 C28.37787109 16.86421875 28.65759766 17.73820312 28.94580078 18.63867188 C29.33058594 19.95738281 29.33058594 19.95738281 29.72314453 21.30273438 C30.03123047 22.12 30.33931641 22.93726562 30.65673828 23.77929688 C33.39534747 31.05791152 33.39534747 31.05791152 31.72314453 35.30273438 C31.06314453 35.96273437 30.40314453 36.62273437 29.72314453 37.30273438 C26.34602695 36.9794665 24.70405523 35.64311576 22.41064453 33.24023438 C21.80607422 32.60988281 21.20150391 31.97953125 20.57861328 31.33007812 C18.76260927 29.3458548 16.98564194 27.33455723 15.22314453 25.30273438 C5.9551709 14.36316407 5.9551709 14.36316407 -6.77685547 8.61523438 C-12.45304797 9.73020076 -16.26064097 13.28651988 -20.27685547 17.30273438 C-22.90185547 16.92773438 -22.90185547 16.92773438 -25.27685547 16.30273438 C-24.79644998 11.7709093 -23.27336498 9.80599354 -20.02685547 6.67773438 C-19.25857422 5.92234375 -18.49029297 5.16695313 -17.69873047 4.38867188 C-12.08007676 -0.45062019 -7.26261793 -2.2241086 0 0 Z " fill="#EDB624" transform="translate(95.27685546875,75.697265625)"/>
<path d="M0 0 C2.5 1.5625 2.5 1.5625 4 4 C4.25 7.75 4.25 7.75 4 11 C3.34 10.01 2.68 9.02 2 8 C1.67 8.99 1.34 9.98 1 11 C-1.0625 11.6875 -1.0625 11.6875 -3 12 C-2.814375 11.030625 -2.62875 10.06125 -2.4375 9.0625 C-2.293125 8.051875 -2.14875 7.04125 -2 6 C-3.06645115 4.70366379 -3.06645115 4.70366379 -5.5625 4.9375 C-6.366875 4.958125 -7.17125 4.97875 -8 5 C-8 6.98 -8 8.96 -8 11 C-6.68 11.33 -5.36 11.66 -4 12 C-4 12.99 -4 13.98 -4 15 C-2.68 15.66 -1.36 16.32 0 17 C-0.99 17.495 -0.99 17.495 -2 18 C-2.46954261 21.04581269 -2.46954261 21.04581269 -2.625 24.5625 C-2.69976562 25.76003906 -2.77453125 26.95757812 -2.8515625 28.19140625 C-2.90054688 29.11824219 -2.94953125 30.04507813 -3 31 C-1.68 31.33 -0.36 31.66 1 32 C0.175 32.474375 -0.65 32.94875 -1.5 33.4375 C-2.325 33.953125 -3.15 34.46875 -4 35 C-4 35.33 -4 35.66 -4 36 C-1.36 36.33 1.28 36.66 4 37 C3.505 37.99 3.505 37.99 3 39 C2.3709375 38.93039063 1.741875 38.86078125 1.09375 38.7890625 C-4.08598571 38.46142861 -7.22151056 38.65389231 -11.375 41.9375 C-11.98085937 42.48277344 -12.58671875 43.02804688 -13.2109375 43.58984375 C-15 45 -15 45 -19 46 C-19.66 43.03 -20.32 40.06 -21 37 C-23.79784711 37 -25.9790678 37.37195775 -28.6875 38 C-29.49574219 38.185625 -30.30398437 38.37125 -31.13671875 38.5625 C-31.75160156 38.706875 -32.36648437 38.85125 -33 39 C-28.15957447 31.39361702 -28.15957447 31.39361702 -25 29 C-22.25 29.25 -22.25 29.25 -20 30 C-20 30.66 -20 31.32 -20 32 C-19.01 32 -18.02 32 -17 32 C-17 30.68 -17 29.36 -17 28 C-17.99 27.67 -18.98 27.34 -20 27 C-20 25.68 -20 24.36 -20 23 C-19.34 23 -18.68 23 -18 23 C-17.731875 22.401875 -17.46375 21.80375 -17.1875 21.1875 C-16.01506533 19.02775192 -14.80630718 17.64209744 -13 16 C-13.66 16 -14.32 16 -15 16 C-16.04692936 6.51116409 -16.04692936 6.51116409 -13.72265625 3.15625 C-9.31424793 -0.28250842 -5.44743775 -0.80372032 0 0 Z " fill="#0C1943" transform="translate(92,37)"/>
<path d="M0 0 C1.04027344 0.43183594 2.08054687 0.86367187 3.15234375 1.30859375 C5.50444131 2.32204786 7.789646 3.38499732 10.0625 4.5625 C10.0625 3.5725 10.0625 2.5825 10.0625 1.5625 C11.3825 1.5625 12.7025 1.5625 14.0625 1.5625 C14.7225 2.8825 15.3825 4.2025 16.0625 5.5625 C18.0425 5.5625 20.0225 5.5625 22.0625 5.5625 C24.94953047 12.30742075 27.72244173 19.09711007 30.375 25.9375 C30.64135254 26.60265625 30.90770508 27.2678125 31.18212891 27.953125 C32.71373754 31.95964424 33.48733267 35.2761286 33.0625 39.5625 C31.5625 41.4375 31.5625 41.4375 30.0625 42.5625 C29.0725 42.2325 28.0825 41.9025 27.0625 41.5625 C27.01351562 40.98242188 26.96453125 40.40234375 26.9140625 39.8046875 C26.46874616 35.1518995 25.90946043 30.90828924 24.0625 26.5625 C23.4025 26.2325 22.7425 25.9025 22.0625 25.5625 C21.5262637 23.97885056 21.0313579 22.38108593 20.55859375 20.77734375 C19.37554338 17.70228871 18.6397236 15.97780805 15.94580078 14.03955078 C13.37073235 12.89614922 10.81088182 11.9753043 8.125 11.125 C6.34384987 10.50474368 4.56386102 9.88114067 2.78515625 9.25390625 C1.96031738 8.97047363 1.13547852 8.68704102 0.28564453 8.39501953 C-2.34710955 7.40911008 -4.65104671 6.1997724 -6.9375 4.5625 C-6.9375 4.2325 -6.9375 3.9025 -6.9375 3.5625 C-9.5775 3.2325 -12.2175 2.9025 -14.9375 2.5625 C-14.9375 -0.4375 -14.9375 -0.4375 -12.9375 -2.4375 C-8.09064764 -4.15735084 -4.53982679 -1.89112686 0 0 Z " fill="#15192D" transform="translate(101.9375,71.4375)"/>
<path d="M0 0 C0.66 0.33 1.32 0.66 2 1 C2.625 3.5625 2.625 3.5625 3 6 C-0.54929577 8.91549296 -0.54929577 8.91549296 -3 9.375 C-5.26213976 9.86550724 -5.26213976 9.86550724 -6.75 12.375 C-9.05886839 15.06867979 -9.73914345 15.43538828 -12.9375 16.4375 C-17.47380535 17.89590097 -19.27139242 20.16289559 -22 24 C-26.38462134 23.49890042 -28.8000997 22.01704885 -32 19 C-32 18.34 -32 17.68 -32 17 C-34.64 17 -37.28 17 -40 17 C-40 16.67 -40 16.34 -40 16 C-37.69 16 -35.38 16 -33 16 C-33.103125 15.278125 -33.20625 14.55625 -33.3125 13.8125 C-32.86783051 9.81047462 -31.01983019 8.53940266 -28 6 C-25.6875 4.6875 -25.6875 4.6875 -24 4 C-22 5.375 -22 5.375 -20 7 C-20 7.66 -20 8.32 -20 9 C-15.32517708 10.49594333 -10.64398011 10.54799337 -6 9 C-6 8.34 -6 7.68 -6 7 C-5.071875 6.6596875 -5.071875 6.6596875 -4.125 6.3125 C-1.38589791 4.62070165 -0.94975528 3.00755839 0 0 Z " fill="#0F1A41" transform="translate(111,129)"/>
<path d="M0 0 C4.40033505 1.5231929 8.27020497 3.72827899 12.25 6.125 C12.45086443 9.84099191 12.4019437 10.89708445 10.25 14.125 C12.56 14.125 14.87 14.125 17.25 14.125 C18 15.8125 18 15.8125 18.25 18.125 C16.6875 20.875 16.6875 20.875 14.25 23.125 C11 23.4375 11 23.4375 8.25 23.125 C8.25 21.475 8.25 19.825 8.25 18.125 C5.94 18.455 3.63 18.785 1.25 19.125 C-0.11884358 14.60781619 0.77924754 11.53725737 2.25 7.125 C1.26 7.125 0.27 7.125 -0.75 7.125 C-1.08 8.115 -1.41 9.105 -1.75 10.125 C-3.73 10.125 -5.71 10.125 -7.75 10.125 C-8.27600226 6.44298419 -7.88340225 5.3054854 -5.625 2.25 C-2.75 0.125 -2.75 0.125 0 0 Z " fill="#1D1E26" transform="translate(62.75,116.875)"/>
<path d="M0 0 C-0.825 0.721875 -1.65 1.44375 -2.5 2.1875 C-5.24407806 4.72917366 -5.24407806 4.72917366 -5.3125 7.8125 C-5.209375 8.534375 -5.10625 9.25625 -5 10 C-1.95086772 11.01111093 -1.95086772 11.01111093 1 10 C1.65555119 7.47266765 1.65555119 7.47266765 2 5 C4 6 4 6 6 8 C5.625 11.125 5.625 11.125 5 14 C5.5775 14.2475 6.155 14.495 6.75 14.75 C9.3002997 16.16683317 11.01785701 17.87627537 13 20 C16.5786304 18.34832443 19.74820188 16.21713508 23 14 C23.99 14.99 24.98 15.98 26 17 C25.195625 17.61875 24.39125 18.2375 23.5625 18.875 C20.96125481 20.74164041 20.96125481 20.74164041 20 23 C19.34 23 18.68 23 18 23 C17.67 23.99 17.34 24.98 17 26 C16.01 25.01 15.02 24.02 14 23 C12.68 24.32 11.36 25.64 10 27 C9.608125 26.278125 9.21625 25.55625 8.8125 24.8125 C6.74329847 21.60167004 5.02254301 19.36546844 2 17 C-0.30795723 16.58299878 -2.56781232 16.43713699 -4.90625 16.27734375 C-7 16 -7 16 -9.5625 14.5 C-11.66973014 10.83525192 -11.84449766 7.13119127 -11 3 C-8.00968977 -1.17166735 -4.73646018 -0.23294066 0 0 Z " fill="#091540" transform="translate(54,37)"/>
<path d="M0 0 C2.31 0 4.62 0 7 0 C9.88703047 6.74492075 12.65994173 13.53461007 15.3125 20.375 C15.57885254 21.04015625 15.84520508 21.7053125 16.11962891 22.390625 C17.65123754 26.39714424 18.42483267 29.7136286 18 34 C16.5 35.875 16.5 35.875 15 37 C14.01 36.67 13.02 36.34 12 36 C11.95101562 35.41992188 11.90203125 34.83984375 11.8515625 34.2421875 C11.40624616 29.5893995 10.84696043 25.34578924 9 21 C8.34 20.67 7.68 20.34 7 20 C5.71682108 16.15046324 5.93356363 13.05261865 6 9 C5.34 9 4.68 9 4 9 C4 8.34 4 7.68 4 7 C2.68 6.34 1.36 5.68 0 5 C0.66 4.34 1.32 3.68 2 3 C1.34 2.67 0.68 2.34 0 2 C0 1.34 0 0.68 0 0 Z " fill="#0F1C43" transform="translate(117,77)"/>
<path d="M0 0 C0.66 0 1.32 0 2 0 C2.33 0.99 2.66 1.98 3 3 C4.79649965 4.0953531 4.79649965 4.0953531 7 4 C8.3743291 2.70896357 9.70896357 1.3743291 11 0 C11.99 0 12.98 0 14 0 C13.91621094 0.62648438 13.83242187 1.25296875 13.74609375 1.8984375 C13.64425781 2.71570313 13.54242188 3.53296875 13.4375 4.375 C13.33308594 5.18710938 13.22867188 5.99921875 13.12109375 6.8359375 C12.81762672 9.04899186 12.81762672 9.04899186 14 11 C15.98 11 17.96 11 20 11 C20.33 12.65 20.66 14.3 21 16 C22.98 16.33 24.96 16.66 27 17 C27 18.32 27 19.64 27 21 C24.03 21 21.06 21 18 21 C17.34 19.68 16.68 18.36 16 17 C15.2575 17.103125 14.515 17.20625 13.75 17.3125 C11 17 11 17 8.6875 14.625 C7 12 7 12 7 10 C6.01 9.67 5.02 9.34 4 9 C4.33 8.01 4.66 7.02 5 6 C3.68 5.67 2.36 5.34 1 5 C0.67 3.35 0.34 1.7 0 0 Z " fill="#111838" transform="translate(51,124)"/>
<path d="M0 0 C3.1191552 1.11882741 6.05985124 2.47547842 9 4 C5.84679401 5.01498047 5.28455309 5.13609061 2.125 3.625 C1.09375 3.08875 0.0625 2.5525 -1 2 C-4.2366963 1.29241674 -4.2366963 1.29241674 -7 1 C-7 1.66 -7 2.32 -7 3 C-7.99 3.495 -7.99 3.495 -9 4 C-9 5.32 -9 6.64 -9 8 C-5.37 8 -1.74 8 2 8 C1.67 8.66 1.34 9.32 1 10 C0.443125 9.93039063 -0.11375 9.86078125 -0.6875 9.7890625 C-6.72733425 9.36056075 -9.75148033 10.62851082 -14.37109375 14.4921875 C-15.60572413 15.6350348 -16.81037566 16.81037566 -18 18 C-20.625 17.625 -20.625 17.625 -23 17 C-22.51959452 12.46817493 -20.99650952 10.50325917 -17.75 7.375 C-16.98171875 6.61960937 -16.2134375 5.86421875 -15.421875 5.0859375 C-10.52883852 0.87161254 -6.52783331 -1.09954639 0 0 Z " fill="#CEA743" transform="translate(93,75)"/>
<path d="M0 0 C3.625 0.25 3.625 0.25 5.328125 1.48828125 C7.713823 4.72909389 7.10428706 8.40875737 6.625 12.25 C5.6875 14.75 5.6875 14.75 3.625 16.25 C0.5784459 17.1270383 -2.20954676 17.49525133 -5.375 17.25 C-8 15.5625 -8 15.5625 -9.375 13.25 C-9.125 11.25 -9.125 11.25 -8.375 9.25 C-8.375 7.93 -8.375 6.61 -8.375 5.25 C-6.375 8.25 -6.375 8.25 -4.375 11.25 C-2.725 10.92 -1.075 10.59 0.625 10.25 C1.04370553 7.91928121 1.04370553 7.91928121 0.625 5.25 C-1.77359044 2.91369252 -1.77359044 2.91369252 -4.375 1.25 C-3.375 0.25 -3.375 0.25 0 0 Z " fill="#151E45" transform="translate(123.375,36.75)"/>
<path d="M0 0 C1.32 0.66 2.64 1.32 4 2 C4.02685938 4.14576637 4.04633088 6.29162645 4.0625 8.4375 C4.07410156 9.63246094 4.08570312 10.82742187 4.09765625 12.05859375 C4 15 4 15 3 16 C0.37790322 16.4495023 -1.34449508 16.38468599 -3.6640625 15.0234375 C-5.3125 13.75 -5.3125 13.75 -8 11 C-8 9.68 -8 8.36 -8 7 C-7.34 7 -6.68 7 -6 7 C-5.7525 6.401875 -5.505 5.80375 -5.25 5.1875 C-3.83629988 2.71352479 -2.34944617 1.56629745 0 0 Z " fill="#ECEDF0" transform="translate(80,53)"/>
<path d="M0 0 C4.26927614 3.45175517 8.2059924 7.09036998 12 11.0625 C12.78375 11.87847656 13.5675 12.69445312 14.375 13.53515625 C16 16 16 16 15.75 18.80859375 C15.5025 19.53175781 15.255 20.25492188 15 21 C9.8857576 20.33857373 7.06271533 16.47702641 3.53515625 13.03125 C0.89399373 10.91506431 -0.67793444 10.33280084 -4 10 C-4.33 9.01 -4.66 8.02 -5 7 C-1.95613276 6.91773332 0.07175348 7.02391783 3 8 C3 7.01 3 6.02 3 5 C2.01 4.67 1.02 4.34 0 4 C0 2.68 0 1.36 0 0 Z " fill="#DAB23A" transform="translate(104,104)"/>
<path d="M0 0 C1.216875 0.12375 2.43375 0.2475 3.6875 0.375 C3.6875 0.705 3.6875 1.035 3.6875 1.375 C2.0375 1.705 0.3875 2.035 -1.3125 2.375 C-0.4875 2.931875 0.3375 3.48875 1.1875 4.0625 C3.6875 6.375 3.6875 6.375 4.125 9 C3.6875 11.375 3.6875 11.375 1.6875 13.375 C-0.75 13.3125 -0.75 13.3125 -3.3125 12.375 C-5.125 9.8125 -5.125 9.8125 -6.3125 7.375 C-6.126875 7.9525 -5.94125 8.53 -5.75 9.125 C-5.2627182 11.63102068 -5.63010183 12.94869541 -6.3125 15.375 C-6.3125 16.695 -6.3125 18.015 -6.3125 19.375 C-6.9725 19.705 -7.6325 20.035 -8.3125 20.375 C-8.3125 19.055 -8.3125 17.735 -8.3125 16.375 C-8.9725 16.045 -9.6325 15.715 -10.3125 15.375 C-9.9825 14.715 -9.6525 14.055 -9.3125 13.375 C-9.395 12.3025 -9.4775 11.23 -9.5625 10.125 C-9.3125 6.375 -9.3125 6.375 -7.3125 2.9375 C-4.21757037 0.29391428 -3.77941273 0.00671299 0 0 Z " fill="#121B44" transform="translate(121.3125,35.625)"/>
<path d="M0 0 C0.99 0.33 1.98 0.66 3 1 C3.33 3.31 3.66 5.62 4 8 C5.32 8 6.64 8 8 8 C6.84826645 10.46800047 5.95216435 12.04783565 4 14 C-0.37231329 13.76365874 -2.86543557 11.95544646 -6 9 C-6 8.34 -6 7.68 -6 7 C-8.64 7 -11.28 7 -14 7 C-14 6.67 -14 6.34 -14 6 C-11.69 6 -9.38 6 -7 6 C-6.67 4.68 -6.34 3.36 -6 2 C-5.34 2 -4.68 2 -4 2 C-4 2.99 -4 3.98 -4 5 C-3.67 4.01 -3.34 3.02 -3 2 C-2.01 1.34 -1.02 0.68 0 0 Z " fill="#111D43" transform="translate(85,139)"/>
<path d="M0 0 C0.99 0.495 0.99 0.495 2 1 C2 1.66 2 2.32 2 3 C3.11375 2.87625 3.11375 2.87625 4.25 2.75 C7 3 7 3 9.3125 4.6875 C11.28544288 7.39116247 11.36337162 8.72965541 11 12 C11.57363281 12.08507812 12.14726563 12.17015625 12.73828125 12.2578125 C15.6511081 13.21366242 17.05458488 14.69006256 19.1875 16.875 C19.88230469 17.57367188 20.57710937 18.27234375 21.29296875 18.9921875 C23 21 23 21 24 24 C22.125 23.6875 22.125 23.6875 20 23 C19.34 22.01 18.68 21.02 18 20 C15.1151726 21.17530005 13.7620342 22.26301483 11.625 24.625 C9 27 9 27 5.6875 27.3125 C4.800625 27.209375 3.91375 27.10625 3 27 C3 26.67 3 26.34 3 26 C3.94875 25.731875 4.8975 25.46375 5.875 25.1875 C9.25267273 24.25013412 9.25267273 24.25013412 11 21 C11 20.01 11 19.02 11 18 C9.68 18 8.36 18 7 18 C7 16.02 7 14.04 7 12 C7.66 12 8.32 12 9 12 C8.45160938 9.01779872 8.45160938 9.01779872 7 6 C5.02111039 5.27306096 3.02045442 4.60183749 1 4 C0.125 1.875 0.125 1.875 0 0 Z " fill="#181923" transform="translate(69,114)"/>
<path d="M0 0 C0.80050781 0.12761719 1.60101563 0.25523438 2.42578125 0.38671875 C3.23402344 0.50660156 4.04226562 0.62648438 4.875 0.75 C5.48988281 0.85699219 6.10476562 0.96398437 6.73828125 1.07421875 C7.39828125 3.05421875 8.05828125 5.03421875 8.73828125 7.07421875 C10.16140625 7.25984375 10.16140625 7.25984375 11.61328125 7.44921875 C14.73828125 8.07421875 14.73828125 8.07421875 16.73828125 10.07421875 C17.14738688 13.85844579 16.5892388 16.74249516 14.73828125 20.07421875 C12.61328125 20.88671875 12.61328125 20.88671875 10.73828125 21.07421875 C11.06828125 20.51734375 11.39828125 19.96046875 11.73828125 19.38671875 C12.86924135 16.77137353 12.89491099 14.89355415 12.73828125 12.07421875 C11.88943359 11.67589844 11.88943359 11.67589844 11.0234375 11.26953125 C9.92322266 10.73972656 9.92322266 10.73972656 8.80078125 10.19921875 C8.06988281 9.85117188 7.33898437 9.503125 6.5859375 9.14453125 C4.73828125 8.07421875 4.73828125 8.07421875 3.73828125 6.07421875 C1.09828125 6.07421875 -1.54171875 6.07421875 -4.26171875 6.07421875 C-4.59171875 5.08421875 -4.92171875 4.09421875 -5.26171875 3.07421875 C-3.53640014 0.90221572 -2.83921072 0.09316926 0 0 Z " fill="#121633" transform="translate(61.26171875,110.92578125)"/>
<path d="M0 0 C0.66 0.33 1.32 0.66 2 1 C1.814375 1.53625 1.62875 2.0725 1.4375 2.625 C0.87727445 5.66622442 1.26921671 8.01043198 2 11 C2.66 11.33 3.32 11.66 4 12 C3.34 12.66 2.68 13.32 2 14 C0.68 14 -0.64 14 -2 14 C-2 15.98 -2 17.96 -2 20 C-2.66 20 -3.32 20 -4 20 C-4 20.66 -4 21.32 -4 22 C-4.66 22 -5.32 22 -6 22 C-5.58669586 16.00708997 -4.68096635 12.74963401 -1 8 C-3.64 8.33 -6.28 8.66 -9 9 C-9.33 8.34 -9.66 7.68 -10 7 C-9.67 6.67 -9.34 6.34 -9 6 C-10.32 5.67 -11.64 5.34 -13 5 C-12.67 4.34 -12.34 3.68 -12 3 C-10.0390625 2.40234375 -10.0390625 2.40234375 -7.625 1.9375 C-4.97816849 1.41589314 -2.5682375 0.85607917 0 0 Z " fill="#1B2238" transform="translate(71,72)"/>
<path d="M0 0 C1.06927734 0.2165625 1.06927734 0.2165625 2.16015625 0.4375 C2.16015625 2.0875 2.16015625 3.7375 2.16015625 5.4375 C-12.1933791 5.64962121 -12.1933791 5.64962121 -16.83984375 4.4375 C-18.27734375 2.375 -18.27734375 2.375 -18.83984375 0.4375 C-13.05909854 -3.41633014 -6.47040117 -1.25402122 0 0 Z " fill="#067951" transform="translate(82.83984375,166.5625)"/>
<path d="M0 0 C0 0.66 0 1.32 0 2 C-0.99 2.495 -0.99 2.495 -2 3 C-2 3.66 -2 4.32 -2 5 C-4.88415883 6.44207941 -7.41721528 6.09394887 -10.625 6.0625 C-11.81351562 6.05347656 -13.00203125 6.04445312 -14.2265625 6.03515625 C-15.14179687 6.02355469 -16.05703125 6.01195312 -17 6 C-17 3.69 -17 1.38 -17 -1 C-5.16939252 -3.30841121 -5.16939252 -3.30841121 0 0 Z " fill="#081640" transform="translate(104,167)"/>
<path d="M0 0 C2.5 1.5625 2.5 1.5625 4 4 C4.25 7.75 4.25 7.75 4 11 C3.34 10.01 2.68 9.02 2 8 C1.67 8.99 1.34 9.98 1 11 C-1.0625 11.6875 -1.0625 11.6875 -3 12 C-2.7215625 10.5459375 -2.7215625 10.5459375 -2.4375 9.0625 C-2.293125 8.051875 -2.14875 7.04125 -2 6 C-3.06645115 4.70366379 -3.06645115 4.70366379 -5.5625 4.9375 C-6.366875 4.958125 -7.17125 4.97875 -8 5 C-8.33 6.65 -8.66 8.3 -9 10 C-9.66 9.34 -10.32 8.68 -11 8 C-13.51083114 9.25541557 -13.87125446 10.50063488 -15 13 C-15.82338129 6.06007194 -15.82338129 6.06007194 -13.72265625 3.35546875 C-9.22529967 -0.18326761 -5.61068508 -0.827806 0 0 Z " fill="#2E385E" transform="translate(92,37)"/>
<path d="M0 0 C3.35954694 0.44464592 4.96614217 1.6229246 7.25 4.0625 C7.77078125 4.61035156 8.2915625 5.15820312 8.828125 5.72265625 C9.21484375 6.14417969 9.6015625 6.56570312 10 7 C8.61043975 10.35810395 7.17473533 12.18586552 4 14 C2.33406445 14.04936105 0.66575673 14.05506634 -1 14 C-1.02685938 11.85423363 -1.04633088 9.70837355 -1.0625 7.5625 C-1.07410156 6.36753906 -1.08570312 5.17257813 -1.09765625 3.94140625 C-1 1 -1 1 0 0 Z " fill="#F4F4F6" transform="translate(90,54)"/>
<path d="M0 0 C2.31 1.98 4.62 3.96 7 6 C10.56521654 4.21739173 13.71455357 2.24007711 17 0 C17.99 0.99 18.98 1.98 20 3 C19.195625 3.61875 18.39125 4.2375 17.5625 4.875 C14.96125481 6.74164041 14.96125481 6.74164041 14 9 C13.34 9 12.68 9 12 9 C11.67 9.99 11.34 10.98 11 12 C10.01 11.01 9.02 10.02 8 9 C6.68 10.32 5.36 11.64 4 13 C3.5875 12.278125 3.175 11.55625 2.75 10.8125 C1.01263197 8.02030138 -0.90381857 5.52987415 -3 3 C-2.01 2.01 -1.02 1.02 0 0 Z " fill="#1A254C" transform="translate(60,51)"/>
<path d="M0 0 C1.80581977 2.65561732 2 4.17110233 2 7.4375 C0.6484429 12.25242218 -0.80761709 13.33944931 -5 16 C-7.875 16.3125 -7.875 16.3125 -10 16 C-10 15.01 -10 14.02 -10 13 C-9.34 12.67 -8.68 12.34 -8 12 C-7.67 11.01 -7.34 10.02 -7 9 C-6.34 8.67 -5.68 8.34 -5 8 C-5.57584432 5.61435923 -6.22227595 3.33317216 -7 1 C-4 0 -4 0 0 0 Z " fill="#040F3E" transform="translate(126,115)"/>
<path d="M0 0 C5.064172 -0.69850648 5.064172 -0.69850648 8 0 C10.61094279 2.29998862 12.55203381 4.83143799 14 8 C13.67 8.99 13.34 9.98 13 11 C13 10.34 13 9.68 13 9 C12.01 8.67 11.02 8.34 10 8 C9.67 7.34 9.34 6.68 9 6 C9.061875 6.78375 9.12375 7.5675 9.1875 8.375 C9.125625 9.24125 9.06375 10.1075 9 11 C6 13 6 13 3.875 12.6875 C2 12 2 12 1 11 C0.625 8.6875 0.625 8.6875 1 6 C3.5 3.6875 3.5 3.6875 6 2 C4.35 2 2.7 2 1 2 C0.67 1.34 0.34 0.68 0 0 Z " fill="#202D54" transform="translate(47,36)"/>
<path d="M0 0 C1.08667969 0.45503906 2.17335938 0.91007812 3.29296875 1.37890625 C4.12441406 1.72824219 4.95585938 2.07757813 5.8125 2.4375 C5.4825 3.4275 5.1525 4.4175 4.8125 5.4375 C0.65111737 5.51909574 -3.1347484 5.41998524 -7.1875 4.4375 C-7.1875 4.1075 -7.1875 3.7775 -7.1875 3.4375 C-9.8275 3.1075 -12.4675 2.7775 -15.1875 2.4375 C-15.1875 -0.5625 -15.1875 -0.5625 -13.1875 -2.5625 C-8.25935361 -4.31119711 -4.60878166 -1.93271489 0 0 Z " fill="#07143A" transform="translate(102.1875,71.5625)"/>
<path d="M0 0 C2 1 2 1 3.0625 3.5 C4.01634598 7.061025 4.40691026 10.38158087 4.65625 14.046875 C4.8479955 16.23055297 4.8479955 16.23055297 7 18 C6.360625 18.28875 5.72125 18.5775 5.0625 18.875 C2.84793921 19.82823451 2.84793921 19.82823451 2 22 C1.67 20.68 1.34 19.36 1 18 C-0.98 18.66 -2.96 19.32 -5 20 C-5 20.66 -5 21.32 -5 22 C-4.34 22.33 -3.68 22.66 -3 23 C-3 24.32 -3 25.64 -3 27 C-3.66 27 -4.32 27 -5 27 C-5.433125 25.88625 -5.433125 25.88625 -5.875 24.75 C-6.82302644 22.43260203 -7.84845911 20.22082885 -9 18 C-8.34 18 -7.68 18 -7 18 C-6.67 17.34 -6.34 16.68 -6 16 C-6 16.66 -6 17.32 -6 18 C-5.34 18 -4.68 18 -4 18 C-4.33 16.68 -4.66 15.36 -5 14 C-4.21625 14.20625 -3.4325 14.4125 -2.625 14.625 C-1.75875 14.74875 -0.8925 14.8725 0 15 C0.66 14.34 1.32 13.68 2 13 C1.71401232 10.19395026 1.71401232 10.19395026 1 7 C0.66140041 4.66742506 0.3267961 2.33425788 0 0 Z " fill="#23222F" transform="translate(125,97)"/>
<path d="M0 0 C0 3.83617123 -0.26759763 7.53519527 -2 11 C-1.34 11 -0.68 11 0 11 C0 10.34 0 9.68 0 9 C0.66 9 1.32 9 2 9 C2 7.02 2 5.04 2 3 C2.99 3.33 3.98 3.66 5 4 C4.67 5.65 4.34 7.3 4 9 C4.99 9.33 5.98 9.66 7 10 C6.67 10.66 6.34 11.32 6 12 C4.68 11.67 3.36 11.34 2 11 C2.33 11.99 2.66 12.98 3 14 C5.64 14 8.28 14 11 14 C9.4375 15.5625 9.4375 15.5625 7 17 C3.62508264 16.88158185 1.08506873 16.61487228 -1.875 14.9375 C-3.69767386 11.79845058 -4.26432686 8.57536862 -4 5 C-2.0625 2 -2.0625 2 0 0 Z " fill="#1E1C2B" transform="translate(67,83)"/>
<path d="M0 0 C1.97929118 2.96893676 3.02741785 5.51620619 4.1875 8.875 C4.55230469 9.90367188 4.91710937 10.93234375 5.29296875 11.9921875 C6.03902832 15.1660321 6.01228892 16.92564107 5 20 C4.34 20.66 3.68 21.32 3 22 C-0.56314374 21.69816344 -2.31830885 20.06173813 -4.75 17.5625 C-5.36359375 16.94503906 -5.9771875 16.32757813 -6.609375 15.69140625 C-8 14 -8 14 -8 12 C-4.56404834 13.52708963 -1.88087546 15.59927045 1 18 C2.13924703 13.21516246 1.62046963 10.57544365 0 6 C-0.125 2.625 -0.125 2.625 0 0 Z " fill="#D3AC41" transform="translate(122,91)"/>
<path d="M0 0 C2.31 0 4.62 0 7 0 C7.83764268 1.95649397 8.66999059 3.91525556 9.5 5.875 C9.9640625 6.96554688 10.428125 8.05609375 10.90625 9.1796875 C12 12 12 12 12 14 C9.5625 13.1875 9.5625 13.1875 7 12 C6.67 11.01 6.34 10.02 6 9 C5.34 9 4.68 9 4 9 C4 8.34 4 7.68 4 7 C2.68 6.34 1.36 5.68 0 5 C0.66 4.34 1.32 3.68 2 3 C1.34 2.67 0.68 2.34 0 2 C0 1.34 0 0.68 0 0 Z " fill="#0E1D4A" transform="translate(117,77)"/>
<path d="M0 0 C0.97066406 0.15339844 1.94132812 0.30679688 2.94140625 0.46484375 C7.26219894 1.08209985 11.58141318 1.33480395 15.9375 1.5625 C16.71673828 1.60568359 17.49597656 1.64886719 18.29882812 1.69335938 C20.19907117 1.79828077 22.09951669 1.8995245 24 2 C24 2.33 24 2.66 24 3 C22.02 3 20.04 3 18 3 C18 5.31 18 7.62 18 10 C19.98 10 21.96 10 24 10 C24 10.33 24 10.66 24 11 C15.4488728 11.27733386 7.41518047 10.52016163 -1 9 C-1 8.67 -1 8.34 -1 8 C4.61 8.33 10.22 8.66 16 9 C16 7.35 16 5.7 16 4 C14.89591797 3.90912109 14.89591797 3.90912109 13.76953125 3.81640625 C12.30580078 3.69072266 12.30580078 3.69072266 10.8125 3.5625 C9.36810547 3.44068359 9.36810547 3.44068359 7.89453125 3.31640625 C5.21350398 3.02333849 2.6337014 2.57296246 0 2 C0 1.34 0 0.68 0 0 Z " fill="#3A7E6B" transform="translate(69,163)"/>
<path d="M0 0 C1.1055189 0.93590504 2.20935453 1.87379858 3.3125 2.8125 C3.92738281 3.33457031 4.54226562 3.85664062 5.17578125 4.39453125 C6.07876953 5.18923828 6.07876953 5.18923828 7 6 C7.57105469 6.47824219 8.14210938 6.95648438 8.73046875 7.44921875 C10 9 10 9 10 13 C7.76953125 13.74609375 7.76953125 13.74609375 5 14 C2.76171875 12.34765625 2.76171875 12.34765625 0.6875 10.0625 C-0.00988281 9.31097656 -0.70726563 8.55945313 -1.42578125 7.78515625 C-1.94527344 7.19605469 -2.46476562 6.60695313 -3 6 C-2.34 5.67 -1.68 5.34 -1 5 C-0.01 5.33 0.98 5.66 2 6 C1.34 4.02 0.68 2.04 0 0 Z " fill="#CEAC3C" transform="translate(99,118)"/>
<path d="M0 0 C2 1 2 1 3 3 C5.64 3 8.28 3 11 3 C9 5 9 5 6.5625 5.4375 C3.64790573 6.07728899 2.719434 6.5927924 1 9 C0.27802838 11.60611077 0.27802838 11.60611077 0 14 C1.32 14 2.64 14 4 14 C3.67 14.66 3.34 15.32 3 16 C0.525 15.01 0.525 15.01 -2 14 C-2.33 11.36 -2.66 8.72 -3 6 C-4.32 6 -5.64 6 -7 6 C-6.67 4.68 -6.34 3.36 -6 2 C-6 2.99 -6 3.98 -6 5 C-4.02 3.35 -2.04 1.7 0 0 Z " fill="#1C1A2A" transform="translate(55,113)"/>
<path d="M0 0 C2 1 2 1 2.75 2.6875 C4.0239153 5.04424331 5.21535329 6.1703108 7.1875 7.9375 C8.80078125 9.47265625 8.80078125 9.47265625 10 11 C9.875 13.875 9.875 13.875 9 16 C6.8125 15.9375 6.8125 15.9375 4 15 C2.06842043 12.8282781 0.51798313 10.47398953 -1 8 C-0.34 7.34 0.32 6.68 1 6 C0.67801034 2.90073181 0.67801034 2.90073181 0 0 Z " fill="#D2AB3A" transform="translate(89,123)"/>
<path d="M0 0 C0.4375 2.125 0.4375 2.125 0 5 C-2.02123353 7.48942887 -4.22353807 9.39378236 -7 11 C-9.9375 10.875 -9.9375 10.875 -12 10 C-11.875 7.75 -11.875 7.75 -11 5 C-7.6161619 2.35177888 -4.44108775 0 0 0 Z " fill="#E3B130" transform="translate(82,82)"/>
<path d="M0 0 C3.59905908 0.55550695 4.99909799 1.74887248 7.25 4.5625 C7.77078125 5.20316406 8.2915625 5.84382813 8.828125 6.50390625 C9.21484375 6.99761719 9.6015625 7.49132812 10 8 C9.01 8 8.02 8 7 8 C7.33 8.66 7.66 9.32 8 10 C8.04022391 12.3329866 8.04320247 14.66706666 8 17 C7.34 16.67 6.68 16.34 6 16 C5.9071875 14.948125 5.9071875 14.948125 5.8125 13.875 C4.56466512 9.45958427 1.33345845 7.02013076 -2 4 C-1.34 2.68 -0.68 1.36 0 0 Z " fill="#17141D" transform="translate(92,122)"/>
<path d="M0 0 C0.33 0 0.66 0 1 0 C1 2.31 1 4.62 1 7 C0.67 7 0.34 7 0 7 C-0.33417929 10.3324787 -0.33417929 10.3324787 0 14 C1.89584109 16.31377147 1.89584109 16.31377147 4 18 C4 18.66 4 19.32 4 20 C5.98 20 7.96 20 10 20 C8.71937515 21.7074998 7.38232443 23.37373596 6 25 C5.34 25 4.68 25 4 25 C3.608125 24.0925 3.21625 23.185 2.8125 22.25 C1.2339267 18.86754653 1.2339267 18.86754653 -1.75 17.0625 C-2.4925 16.381875 -3.235 15.70125 -4 15 C-4 9.60580727 -1.9926106 4.93820887 0 0 Z " fill="#CDA445" transform="translate(45,93)"/>
<path d="M0 0 C0.7425 0.2475 1.485 0.495 2.25 0.75 C1.74477778 5.12859255 -0.92827222 7.56651224 -3.75 10.75 C-5.4 10.42 -7.05 10.09 -8.75 9.75 C-5.94354839 -0.54032258 -5.94354839 -0.54032258 0 0 Z " fill="#E9B330" transform="translate(71.75,123.25)"/>
<path d="M0 0 C2 1 2 1 4 3 C4.26991906 5.68839385 4.08737357 8.29141936 4 11 C-0.00565371 12.60226148 -3.08609399 11.47694566 -7 10 C-7.33 9.01 -7.66 8.02 -8 7 C-5.69 6.34 -3.38 5.68 -1 5 C-0.67 3.35 -0.34 1.7 0 0 Z " fill="#071440" transform="translate(56,42)"/>
<path d="M0 0 C1.98841412 2.98262118 3.53671732 5.97640675 5.125 9.1875 C5.66382813 10.27417969 6.20265625 11.36085937 6.7578125 12.48046875 C7.16773438 13.31191406 7.57765625 14.14335937 8 15 C7.34 15 6.68 15 6 15 C5.34 14.34 4.68 13.68 4 13 C2.515 15.475 2.515 15.475 1 18 C1.66 18 2.32 18 3 18 C3.33 18.99 3.66 19.98 4 21 C3.34 21.33 2.68 21.66 2 22 C0.02 18.7 -1.96 15.4 -4 12 C-2.33333333 12 -0.66666667 12 1 12 C0.67 8.04 0.34 4.08 0 0 Z " fill="#227E5D" transform="translate(18,119)"/>
<path d="M0 0 C4.17443363 3.50074982 8.3145494 6.97950843 12 11 C12 11.66 12 12.32 12 13 C11.01 13 10.02 13 9 13 C8.34 12.01 7.68 11.02 7 10 C6.01 9.67 5.02 9.34 4 9 C4.33 10.65 4.66 12.3 5 14 C4.278125 13.34 3.55625 12.68 2.8125 12 C-0.21597933 9.8464147 -1.39703406 9.58823246 -5 10 C-5 9.01 -5 8.02 -5 7 C-1.95613276 6.91773332 0.07175348 7.02391783 3 8 C3 7.01 3 6.02 3 5 C2.01 4.67 1.02 4.34 0 4 C0 2.68 0 1.36 0 0 Z " fill="#CAA43D" transform="translate(104,104)"/>
<path d="M0 0 C1.94498034 2.91747052 2.39388356 4.15106847 2.8125 7.5 C2.97685547 8.66015625 2.97685547 8.66015625 3.14453125 9.84375 C3 12 3 12 1.51171875 13.78125 C1.01285156 14.1834375 0.51398438 14.585625 0 15 C-0.99 14.67 -1.98 14.34 -3 14 C-3 10.7 -3 7.4 -3 4 C-2.01 3.67 -1.02 3.34 0 3 C0 2.01 0 1.02 0 0 Z " fill="#17214B" transform="translate(132,99)"/>
<path d="M0 0 C2.62187494 1.04874998 3.79371361 1.64931313 5.25 4.125 C5.4975 4.74375 5.745 5.3625 6 6 C1.25645564 8.22656164 -2.72250715 9.46148032 -8 10 C-5.61820737 6.25718301 -3.25524265 3.02272532 0 0 Z " fill="#E4E6EB" transform="translate(67,66)"/>
<path d="M0 0 C1.46015291 0.28241641 2.91809793 0.57626614 4.375 0.875 C5.18710938 1.03742188 5.99921875 1.19984375 6.8359375 1.3671875 C9 2 9 2 11 4 C11.40910563 7.78422704 10.85095755 10.66827641 9 14 C6.875 14.8125 6.875 14.8125 5 15 C5.33 14.443125 5.66 13.88625 6 13.3125 C7.1309601 10.69715478 7.15662974 8.8193354 7 6 C4.69 5.01 2.38 4.02 0 3 C0 2.01 0 1.02 0 0 Z " fill="#05123D" transform="translate(67,117)"/>
<path d="M0 0 C0.721875 0.268125 1.44375 0.53625 2.1875 0.8125 C0.65532946 4.25988372 -1.21820444 7.06559882 -3.8125 9.8125 C-5.1325 9.8125 -6.4525 9.8125 -7.8125 9.8125 C-8.125 7.625 -8.125 7.625 -7.8125 4.8125 C-3.95043103 -0.26336207 -3.95043103 -0.26336207 0 0 Z " fill="#D4AD3D" transform="translate(62.8125,117.1875)"/>
<path d="M0 0 C1.9375 0.6875 1.9375 0.6875 4 2 C4.75 4.625 4.75 4.625 5 7 C3.8553125 6.9690625 3.8553125 6.9690625 2.6875 6.9375 C-0.10185786 6.87057159 -0.10185786 6.87057159 -3 8 C-3.73323796 10.01508358 -3.73323796 10.01508358 -4 12 C-6 9 -6 9 -6 6 C-3.5625 3.375 -3.5625 3.375 -1 1 C-0.67 0.67 -0.34 0.34 0 0 Z " fill="#07113B" transform="translate(85,133)"/>
<path d="M0 0 C2.5625 0.1875 2.5625 0.1875 4.5625 2.1875 C4.00694444 6.74305556 4.00694444 6.74305556 2.5625 8.1875 C0.0625 8.3125 0.0625 8.3125 -2.4375 8.1875 C-3.4375 7.1875 -3.4375 7.1875 -3.5625 4.1875 C-3.39891479 0.26145498 -3.39891479 0.26145498 0 0 Z " fill="#ECEDF0" transform="translate(86.4375,40.8125)"/>
<path d="M0 0 C0.99 0.33 1.98 0.66 3 1 C2.8125 3.875 2.8125 3.875 2 7 C-0.5625 8.375 -0.5625 8.375 -3 9 C-3.93423645 5.98968256 -4.04449911 5.13349732 -3 2 C-2.01 1.34 -1.02 0.68 0 0 Z M-7 2 C-6.01 2 -5.02 2 -4 2 C-4 3.65 -4 5.3 -4 7 C-7.3 7 -10.6 7 -14 7 C-14 6.67 -14 6.34 -14 6 C-11.69 6 -9.38 6 -7 6 C-7 4.68 -7 3.36 -7 2 Z " fill="#162044" transform="translate(85,139)"/>
<path d="M0 0 C-1.98 1.65 -3.96 3.3 -6 5 C-6 4.34 -6 3.68 -6 3 C-6.969375 3.495 -7.93875 3.99 -8.9375 4.5 C-13.28728381 6.39857367 -17.33030204 6.28589988 -22 6 C-22.12375 6.804375 -22.2475 7.60875 -22.375 8.4375 C-22.58125 9.283125 -22.7875 10.12875 -23 11 C-23.99 11.495 -23.99 11.495 -25 12 C-24.34 9.69 -23.68 7.38 -23 5 C-22.39414062 4.90203125 -21.78828125 4.8040625 -21.1640625 4.703125 C-15.43682782 3.68103389 -10.42770487 2.11402966 -5.12890625 -0.29296875 C-3 -1 -3 -1 0 0 Z " fill="#C0A048" transform="translate(71,80)"/>
<path d="M0 0 C5.14860706 1.28715177 5.86461447 2.90658001 9 7 C7.9375 8.5625 7.9375 8.5625 6 10 C2.3125 9.6875 2.3125 9.6875 -1 9 C-0.67 6.03 -0.34 3.06 0 0 Z " fill="#07143F" transform="translate(78,44)"/>
<path d="M0 0 C2.4375 0.1875 2.4375 0.1875 3.4375 1.1875 C3.625 3.625 3.625 3.625 3.4375 6.1875 C2.7775 6.8475 2.1175 7.5075 1.4375 8.1875 C-1.1875 7.8125 -1.1875 7.8125 -3.5625 7.1875 C-4.1875 4.8125 -4.1875 4.8125 -4.5625 2.1875 C-2.5625 0.1875 -2.5625 0.1875 0 0 Z " fill="#E7E8ED" transform="translate(121.5625,40.8125)"/>
<path d="M0 0 C2.4375 0.6875 2.4375 0.6875 5 2 C5.9375 4.5 5.9375 4.5 6 7 C4 9 4 9 1.5 9.3125 C0.2625 9.1578125 0.2625 9.1578125 -1 9 C-3 6 -3 6 -2.625 3.8125 C-2.41875 3.214375 -2.2125 2.61625 -2 2 C-1.34 2 -0.68 2 0 2 C0 1.34 0 0.68 0 0 Z " fill="#091642" transform="translate(132,21)"/>
<path d="M0 0 C2.875 -0.1875 2.875 -0.1875 6 0 C8.4294516 3.6441774 8.16179575 5.71241272 8 10 C7.34 9.01 6.68 8.02 6 7 C5.67 7.99 5.34 8.98 5 10 C2.9375 10.6875 2.9375 10.6875 1 11 C1.226875 10.071875 1.45375 9.14375 1.6875 8.1875 C2.36319983 5.03173152 2.36319983 5.03173152 0.5625 3.125 C0.046875 2.75375 -0.46875 2.3825 -1 2 C-0.67 1.34 -0.34 0.68 0 0 Z " fill="#192249" transform="translate(88,38)"/>
<path d="M0 0 C0.99 0 1.98 0 3 0 C4.60546875 1.75 4.60546875 1.75 6.1875 4 C6.71730469 4.7425 7.24710938 5.485 7.79296875 6.25 C8.19128906 6.8275 8.58960937 7.405 9 8 C5.35839192 9.21386936 4.66834531 8.6674695 1.3125 7.0625 C0.50425781 6.68222656 -0.30398437 6.30195312 -1.13671875 5.91015625 C-2.05904297 5.45962891 -2.05904297 5.45962891 -3 5 C-1.125 1.125 -1.125 1.125 0 0 Z " fill="#E2E4E9" transform="translate(102,66)"/>
<path d="M0 0 C0.598125 0.226875 1.19625 0.45375 1.8125 0.6875 C1.21519644 4.03239996 0.23332645 6.26667355 -2.1875 8.6875 C-4.875 8.9375 -4.875 8.9375 -7.1875 8.6875 C-4.49237805 -0.64176829 -4.49237805 -0.64176829 0 0 Z " fill="#C4A240" transform="translate(79.1875,131.3125)"/>
<path d="M0 0 C2.5 0.125 2.5 0.125 3.5 1.125 C3.54080783 3.12458364 3.54254356 5.12545254 3.5 7.125 C1.125 7.75 1.125 7.75 -1.5 8.125 C-3.5 6.125 -3.5 6.125 -3.6875 3.5625 C-3.4324847 0.24730106 -3.33009823 0.16650491 0 0 Z " fill="#EFF0F3" transform="translate(51.5,40.875)"/>
<path d="M0 0 C0.66 0 1.32 0 2 0 C2 0.66 2 1.32 2 2 C2.928125 1.95875 3.85625 1.9175 4.8125 1.875 C8 2 8 2 11 4 C11.309375 4.99 11.61875 5.98 11.9375 7 C13.19849958 10.5604694 13.81282544 10.45781876 17 12 C17.75 14.625 17.75 14.625 18 17 C17.236875 16.360625 16.47375 15.72125 15.6875 15.0625 C13.11753287 12.85767219 13.11753287 12.85767219 10 12 C9.67 9.69 9.34 7.38 9 5 C8.43410156 4.89042969 7.86820312 4.78085938 7.28515625 4.66796875 C6.55167969 4.50941406 5.81820312 4.35085937 5.0625 4.1875 C4.33160156 4.03667969 3.60070312 3.88585937 2.84765625 3.73046875 C2.23792969 3.48941406 1.62820312 3.24835938 1 3 C0.67 2.01 0.34 1.02 0 0 Z " fill="#D1A742" transform="translate(70,114)"/>
<path d="M0 0 C2.96404505 2.80804268 5.44499019 5.18315774 7 9 C6.01 9 5.02 9 4 9 C4 9.99 4 10.98 4 12 C1.22846695 10.61423347 0.51925062 8.65868859 -1 6 C-1.66 5.01 -2.32 4.02 -3 3 C-2.01 2.01 -1.02 1.02 0 0 Z " fill="#1A234A" transform="translate(108,64)"/>
<path d="M0 0 C3.5625 0.1875 3.5625 0.1875 5.5625 2.1875 C5.83241906 4.87589385 5.64987357 7.47891936 5.5625 10.1875 C4.5725 10.1875 3.5825 10.1875 2.5625 10.1875 C2.2221875 9.07375 2.2221875 9.07375 1.875 7.9375 C0.31842468 4.67610409 -1.52268854 3.25855025 -4.4375 1.1875 C-3.4375 0.1875 -3.4375 0.1875 0 0 Z " fill="#0B1644" transform="translate(123.4375,36.8125)"/>
<path d="M0 0 C2.61088071 0.96699286 3.93907338 2.27888421 5.859375 4.28125 C6.47296875 4.9103125 7.0865625 5.539375 7.71875 6.1875 C9.109375 7.78125 9.109375 7.78125 9.109375 8.78125 C7.129375 8.78125 5.149375 8.78125 3.109375 8.78125 C3.769375 8.45125 4.429375 8.12125 5.109375 7.78125 C5.109375 7.12125 5.109375 6.46125 5.109375 5.78125 C3.459375 5.78125 1.809375 5.78125 0.109375 5.78125 C0.109375 5.12125 0.109375 4.46125 0.109375 3.78125 C-2.200625 3.78125 -4.510625 3.78125 -6.890625 3.78125 C-2.9475645 -0.34104052 -2.9475645 -0.34104052 0 0 Z " fill="#D2A840" transform="translate(89.890625,90.21875)"/>
<path d="M0 0 C0.66 0 1.32 0 2 0 C2.33 0.99 2.66 1.98 3 3 C4.79649965 4.0953531 4.79649965 4.0953531 7 4 C8.3743291 2.70896357 9.70896357 1.3743291 11 0 C11.99 0 12.98 0 14 0 C14 0.99 14 1.98 14 3 C13.01 3.495 13.01 3.495 12 4 C10.86649466 6.01669827 10.86649466 6.01669827 10 8 C6.51329166 6.8905928 3.22515763 5.73662334 0 4 C0 2.68 0 1.36 0 0 Z " fill="#061037" transform="translate(51,124)"/>
<path d="M0 0 C1.32 0 2.64 0 4 0 C4.75 1.6875 4.75 1.6875 5 4 C3.0625 6.75 3.0625 6.75 1 9 C-1.475 8.01 -1.475 8.01 -4 7 C-3.67 6.34 -3.34 5.68 -3 5 C-2.34 5 -1.68 5 -1 5 C-0.67 3.35 -0.34 1.7 0 0 Z " fill="#09123F" transform="translate(112,73)"/>
<path d="M0 0 C1.32 0.99 2.64 1.98 4 3 C1.69 5.64 -0.62 8.28 -3 11 C-4.32 9.68 -5.64 8.36 -7 7 C-4.69 4.69 -2.38 2.38 0 0 Z " fill="#0B1741" transform="translate(63,64)"/>
<path d="M0 0 C4.74250826 1.47993165 9.41357134 3.08592063 14 5 C15.11375 5.4640625 15.11375 5.4640625 16.25 5.9375 C18 7 18 7 19 10 C16.03 9.34 13.06 8.68 10 8 C10 7.01 10 6.02 10 5 C6.7 4.01 3.4 3.02 0 2 C0 1.34 0 0.68 0 0 Z " fill="#D8AC48" transform="translate(103,80)"/>
<path d="M0 0 C0.33 0 0.66 0 1 0 C1 3.3 1 6.6 1 10 C-2.62326739 11.2077558 -3.64146369 10.54311128 -7 9 C-6.67 8.01 -6.34 7.02 -6 6 C-4.35 5.67 -2.7 5.34 -1 5 C-0.67 3.35 -0.34 1.7 0 0 Z " fill="#06133E" transform="translate(94,43)"/>
<path d="M0 0 C0.66 0 1.32 0 2 0 C2.06058594 0.60328125 2.12117188 1.2065625 2.18359375 1.828125 C2.26738281 2.62734375 2.35117188 3.4265625 2.4375 4.25 C2.55931641 5.43335937 2.55931641 5.43335937 2.68359375 6.640625 C2.99511197 9.29618363 2.99511197 9.29618363 4 13 C0.7 12.67 -2.6 12.34 -6 12 C-6 11.34 -6 10.68 -6 10 C-4.35 9.67 -2.7 9.34 -1 9 C-1.33 8.01 -1.66 7.02 -2 6 C-1.34 6 -0.68 6 0 6 C0 4.02 0 2.04 0 0 Z " fill="#E2B12C" transform="translate(97,111)"/>
<path d="M0 0 C3 1 3 1 4 3 C4.06950541 4.54023996 4.08452357 6.08334988 4.0625 7.625 C4.05347656 8.44226562 4.04445313 9.25953125 4.03515625 10.1015625 C4.02355469 10.72804688 4.01195313 11.35453125 4 12 C2.68 11.34 1.36 10.68 0 10 C0 6.7 0 3.4 0 0 Z " fill="#051442" transform="translate(84,55)"/>
<path d="M0 0 C0.33 0 0.66 0 1 0 C1.02725341 1.7290774 1.04650987 3.45828176 1.0625 5.1875 C1.07410156 6.15042969 1.08570313 7.11335938 1.09765625 8.10546875 C1.00486622 10.85576513 0.62111685 13.32479591 0 16 C-0.66 15.67 -1.32 15.34 -2 15 C-2 14.34 -2 13.68 -2 13 C-2.66 13 -3.32 13 -4 13 C-3.52140759 11.39566191 -3.04210442 9.79153584 -2.5625 8.1875 C-2.29566406 7.29417969 -2.02882812 6.40085937 -1.75390625 5.48046875 C-1.19612127 3.64526945 -0.60655425 1.81966274 0 0 Z " fill="#16244B" transform="translate(40,87)"/>
<path d="M0 0 C0.99 0 1.98 0 3 0 C2.67 0.66 2.34 1.32 2 2 C1.34 1.34 0.68 0.68 0 0 Z M4.25 2.8125 C5.1575 3.204375 6.065 3.59625 7 4 C6.34 4.66 5.68 5.32 5 6 C4.53603307 8.89223503 4.53603307 8.89223503 4.375 12.125 C4.30023438 13.22070312 4.22546875 14.31640625 4.1484375 15.4453125 C4.09945312 16.28835937 4.05046875 17.13140625 4 18 C3.67 18 3.34 18 3 18 C2.93941406 17.37351562 2.87882812 16.74703125 2.81640625 16.1015625 C2.73261719 15.28429687 2.64882812 14.46703125 2.5625 13.625 C2.48128906 12.81289063 2.40007812 12.00078125 2.31640625 11.1640625 C2.10909886 8.95727195 2.10909886 8.95727195 1 7 C-1.01669827 5.86649466 -1.01669827 5.86649466 -3 5 C-0.27596974 2.27596974 0.38633179 1.84658295 4.25 2.8125 Z " fill="#263159" transform="translate(85,49)"/>
<path d="M0 0 C0.33 0 0.66 0 1 0 C1.46882399 8.12628256 1.46882399 8.12628256 -0.375 11.5625 C-2 13 -2 13 -4 13 C-5.60339848 9.88228073 -6.18974141 8.60988311 -5.125 5.1875 C-4.75375 4.465625 -4.3825 3.74375 -4 3 C-3.01 3.66 -2.02 4.32 -1 5 C-0.67 3.35 -0.34 1.7 0 0 Z " fill="#1A2347" transform="translate(129,40)"/>
<path d="M0 0 C1.98 0 3.96 0 6 0 C6 1.32 6 2.64 6 4 C5.071875 4.45375 4.14375 4.9075 3.1875 5.375 C-0.03921389 6.9421633 -0.03921389 6.9421633 -3 9 C-2.01 6.03 -1.02 3.06 0 0 Z " fill="#1E2850" transform="translate(44,77)"/>
<path d="M0 0 C4.62 0 9.24 0 14 0 C13.67 0.66 13.34 1.32 13 2 C12.3709375 1.93039063 11.741875 1.86078125 11.09375 1.7890625 C4.69665272 1.38442683 1.44238788 2.38702854 -3.40625 6.58984375 C-3.9321875 7.05519531 -4.458125 7.52054687 -5 8 C-5.99 8.495 -5.99 8.495 -7 9 C-6.67 7.35 -6.34 5.7 -6 4 C-4.02 3.34 -2.04 2.68 0 2 C0 1.34 0 0.68 0 0 Z " fill="#282123" transform="translate(82,74)"/>
<path d="M0 0 C0.66 0.33 1.32 0.66 2 1 C3.04449911 4.13349732 2.93423645 4.98968256 2 8 C0.35 8.33 -1.3 8.66 -3 9 C-3.89674777 6.48910624 -4.13172674 5.35464891 -3.1875 2.8125 C-2 1 -2 1 0 0 Z " fill="#037C4C" transform="translate(33,27)"/>
<path d="M0 0 C0.66 0 1.32 0 2 0 C3.66220099 3.51995504 4.19347502 5.30022743 3 9 C3 10.32 3 11.64 3 13 C2.01 13.495 2.01 13.495 1 14 C1 12.68 1 11.36 1 10 C0.34 9.67 -0.32 9.34 -1 9 C-0.67 8.34 -0.34 7.68 0 7 C0.04022391 4.6670134 0.04320247 2.33293334 0 0 Z " fill="#222A4F" transform="translate(112,42)"/>
<path d="M0 0 C2.97 0.495 2.97 0.495 6 1 C6 1.99 6 2.98 6 4 C6.66 4 7.32 4 8 4 C8.103125 4.639375 8.20625 5.27875 8.3125 5.9375 C8.6528125 6.9584375 8.6528125 6.9584375 9 8 C9.99 8.33 10.98 8.66 12 9 C11.67 9.99 11.34 10.98 11 12 C9.16364422 10.19047409 7.33083792 8.37759362 5.5 6.5625 C4.97535156 6.04623047 4.45070313 5.52996094 3.91015625 4.99804688 C2.58775448 3.68423213 1.29164432 2.34406495 0 1 C0 0.67 0 0.34 0 0 Z " fill="#1C1D25" transform="translate(91,90)"/>
<path d="M0 0 C1.98 0.99 3.96 1.98 6 3 C5.34 5.31 4.68 7.62 4 10 C3.01 9.67 2.02 9.34 1 9 C0.67 6.03 0.34 3.06 0 0 Z " fill="#0E1333" transform="translate(123,88)"/>
<path d="M0 0 C0.33 1.32 0.66 2.64 1 4 C0.01 4 -0.98 4 -2 4 C-2 5.98 -2 7.96 -2 10 C-2.66 10 -3.32 10 -4 10 C-4 10.66 -4 11.32 -4 12 C-4.66 12 -5.32 12 -6 12 C-5.25 4.375 -5.25 4.375 -3 1 C-2.01 0.67 -1.02 0.34 0 0 Z " fill="#061140" transform="translate(71,82)"/>
<path d="M0 0 C0.66 0.33 1.32 0.66 2 1 C3.99960012 1.039992 6.00047242 1.04346799 8 1 C3.28840397 4.73678306 -0.01903338 5.11284843 -6 5 C-3.375 1.125 -3.375 1.125 0 0 Z " fill="#131625" transform="translate(54,80)"/>
<path d="M0 0 C0.99 0.33 1.98 0.66 3 1 C2.67 2.32 2.34 3.64 2 5 C3.32 5.66 4.64 6.32 6 7 C6 7.99 6 8.98 6 10 C6.66 10.66 7.32 11.32 8 12 C4.21304827 11.4590069 2.37254028 9.96567536 0 7 C0 5.68 0 4.36 0 3 C-1.65 3 -3.3 3 -5 3 C-5 2.67 -5 2.34 -5 2 C-3.35 2 -1.7 2 0 2 C0 1.34 0 0.68 0 0 Z " fill="#272F4F" transform="translate(50,123)"/>
<path d="M0 0 C5.41538462 -0.36923077 5.41538462 -0.36923077 8.375 1.5 C8.91125 1.995 9.4475 2.49 10 3 C9.67 3.66 9.34 4.32 9 5 C7.35 5 5.7 5 4 5 C3.67 4.01 3.34 3.02 3 2 C1.68 2.33 0.36 2.66 -1 3 C-0.67 2.01 -0.34 1.02 0 0 Z " fill="#0B1A45" transform="translate(98,72)"/>
<path d="M0 0 C0.9075 0.391875 1.815 0.78375 2.75 1.1875 C1.945625 1.80625 1.14125 2.425 0.3125 3.0625 C-2.28874519 4.92914041 -2.28874519 4.92914041 -3.25 7.1875 C-4.57 6.5275 -5.89 5.8675 -7.25 5.1875 C-7.25 2.1875 -7.25 2.1875 -5.625 0.375 C-3.25 -0.8125 -3.25 -0.8125 0 0 Z M-3.25 1.1875 C-2.25 3.1875 -2.25 3.1875 -2.25 3.1875 Z " fill="#16224A" transform="translate(102.25,63.8125)"/>
<path d="M0 0 C2.31 1.98 4.62 3.96 7 6 C5.02 6.99 5.02 6.99 3 8 C2.67 8.99 2.34 9.98 2 11 C0.35 9.02 -1.3 7.04 -3 5 C-0.525 5.495 -0.525 5.495 2 6 C1.34 4.02 0.68 2.04 0 0 Z " fill="#C1A33A" transform="translate(99,118)"/>
<path d="M0 0 C2.78211944 0.37596209 4.5879284 0.67318459 6.8125 2.4375 C8 4 8 4 8 6 C5.125 6.125 5.125 6.125 2 6 C1.34 5.34 0.68 4.68 0 4 C0 2.68 0 1.36 0 0 Z " fill="#051333" transform="translate(113,109)"/>
<path d="M0 0 C0.33 0 0.66 0 1 0 C1 2.31 1 4.62 1 7 C0.67 7 0.34 7 0 7 C0 9.64 0 12.28 0 15 C-1.32 15 -2.64 15 -4 15 C-3.43179252 9.54520815 -2.05362055 5.08940744 0 0 Z " fill="#BC9943" transform="translate(45,93)"/>
<path d="M0 0 C2 1 2 1 3.125 3.5 C4.1889199 7.7556796 4.17434209 11.64144777 4 16 C2.68 16.33 1.36 16.66 0 17 C0.350625 16.46375 0.70125 15.9275 1.0625 15.375 C2.3160899 12.19923892 1.71548147 10.31723227 1 7 C0.66140041 4.66742506 0.3267961 2.33425788 0 0 Z " fill="#272027" transform="translate(125,97)"/>
<path d="M0 0 C0.66 0.33 1.32 0.66 2 1 C1.6596875 2.5778125 1.6596875 2.5778125 1.3125 4.1875 C0.9641866 8.43692351 1.45310647 9.69847135 4 13 C4.66 13.66 5.32 14.32 6 15 C5.01 15.33 4.02 15.66 3 16 C-2.94021215 7.6412729 -2.94021215 7.6412729 -2 2 C-1.34 1.34 -0.68 0.68 0 0 Z " fill="#CDA842" transform="translate(63,85)"/>
<path d="M0 0 C0 1.32 0 2.64 0 4 C-2.64 4 -5.28 4 -8 4 C-8.33 3.01 -8.66 2.02 -9 1 C-5.8035914 -0.06546953 -3.34252724 -0.07427838 0 0 Z " fill="#081139" transform="translate(78,141)"/>
<path d="M0 0 C3.36179774 1.44077046 5.59156268 3.24750021 8 6 C8 6.66 8 7.32 8 8 C9.32 8.33 10.64 8.66 12 9 C10.265625 9.73828125 10.265625 9.73828125 8 10 C5.859375 8.41796875 5.859375 8.41796875 3.75 6.1875 C3.04359375 5.45917969 2.3371875 4.73085937 1.609375 3.98046875 C0 2 0 2 0 0 Z " fill="#C09F44" transform="translate(114,103)"/>
<path d="M0 0 C2.31 1.98 4.62 3.96 7 6 C6.67 6.66 6.34 7.32 6 8 C5.34 8 4.68 8 4 8 C3.34 7.34 2.68 6.68 2 6 C1.34 6 0.68 6 0 6 C-0.33 6.99 -0.66 7.98 -1 9 C-1.99 7.68 -2.98 6.36 -4 5 C-2.35 5 -0.7 5 1 5 C0.67 3.35 0.34 1.7 0 0 Z " fill="#242223" transform="translate(107,97)"/>
<path d="M0 0 C0.33 0.66 0.66 1.32 1 2 C0.34 1.67 -0.32 1.34 -1 1 C-0.67 0.67 -0.34 0.34 0 0 Z M-11 1 C-10.44570312 1.15597656 -9.89140625 1.31195313 -9.3203125 1.47265625 C-8.23363281 1.76462891 -8.23363281 1.76462891 -7.125 2.0625 C-6.04605469 2.35833984 -6.04605469 2.35833984 -4.9453125 2.66015625 C-2.92726407 3.21132607 -2.92726407 3.21132607 -1 2 C-1 2.99 -1 3.98 -1 5 C-5.455 5.495 -5.455 5.495 -10 6 C-10.33 4.35 -10.66 2.7 -11 1 Z " fill="#031441" transform="translate(79,92)"/>
<path d="M0 0 C3 1 3 1 6 3 C6 3.66 6 4.32 6 5 C6.66 5 7.32 5 8 5 C8 6.65 8 8.3 8 10 C7.67 9.401875 7.34 8.80375 7 8.1875 C4.17779943 5.10071812 0.92331421 4.23011277 -3 3 C-2.01 2.67 -1.02 2.34 0 2 C0 1.34 0 0.68 0 0 Z " fill="#232126" transform="translate(115,81)"/>
<path d="M0 0 C1.78257471 3.23091667 2 5.32518002 2 9 C2.66 9.33 3.32 9.66 4 10 C1.28324005 9.63287028 -0.61063713 9.27255401 -2.875 7.6875 C-4 6 -4 6 -3.6875 3.8125 C-3.460625 3.214375 -3.23375 2.61625 -3 2 C-3 2.99 -3 3.98 -3 5 C-2.34 5 -1.68 5 -1 5 C-0.67 3.35 -0.34 1.7 0 0 Z " fill="#232C51" transform="translate(47,43)"/>
<path d="M0 0 C1.32 0 2.64 0 4 0 C4 0.66 4 1.32 4 2 C2.39743892 2.50512244 0.79288208 3.00391627 -0.8125 3.5 C-2.15248047 3.91765625 -2.15248047 3.91765625 -3.51953125 4.34375 C-6 5 -6 5 -9 5 C-9.33 4.01 -9.66 3.02 -10 2 C-6.7 1.67 -3.4 1.34 0 1 C0 0.67 0 0.34 0 0 Z " fill="#1F294A" transform="translate(111,167)"/>
<path d="M0 0 C0.33 0.66 0.66 1.32 1 2 C-0.20765378 4.75345062 -1.08951943 6.75701691 -3 9 C-6.25 9.9375 -6.25 9.9375 -9 10 C-8.06409496 8.8944811 -7.12620142 7.79064547 -6.1875 6.6875 C-5.66542969 6.07261719 -5.14335937 5.45773438 -4.60546875 4.82421875 C-3.12827531 3.14575321 -1.59960869 1.56117966 0 0 Z " fill="#172145" transform="translate(144,138)"/>
<path d="M0 0 C0.66 0 1.32 0 2 0 C2.6875 3.3125 2.6875 3.3125 3 7 C1.5625 8.9375 1.5625 8.9375 0 10 C-2.14915785 6.77626323 -2.38286803 5.73296326 -2 2 C-1.34 1.34 -0.68 0.68 0 0 Z " fill="#0E1847" transform="translate(69,135)"/>
<path d="M0 0 C4.50884026 2.31883213 6.93906776 5.06451569 10 9 C9.01 9.33 8.02 9.66 7 10 C7 9.34 7 8.68 7 8 C6.01 8 5.02 8 4 8 C3.34 6.02 2.68 4.04 2 2 C1.34 2 0.68 2 0 2 C0 1.34 0 0.68 0 0 Z " fill="#29242A" transform="translate(97,88)"/>
<path d="M0 0 C-0.33 0.99 -0.66 1.98 -1 3 C-3.06640625 3.94921875 -3.06640625 3.94921875 -5.5625 4.6875 C-6.38878906 4.93886719 -7.21507813 5.19023438 -8.06640625 5.44921875 C-8.70449219 5.63097656 -9.34257813 5.81273438 -10 6 C-7.82304683 0.97626191 -5.41372848 -0.29263397 0 0 Z " fill="#021338" transform="translate(92,85)"/>
<path d="M0 0 C0.33 0.99 0.66 1.98 1 3 C-1.68841859 5.25245881 -3.64641875 6.88213958 -7 8 C-7.66 7.34 -8.32 6.68 -9 6 C-6.03 4.02 -3.06 2.04 0 0 Z " fill="#182146" transform="translate(134,148)"/>
<path d="M0 0 C0.66 0.33 1.32 0.66 2 1 C2 1.66 2 2.32 2 3 C2.99 3.33 3.98 3.66 5 4 C5 4.66 5 5.32 5 6 C3.02 6 1.04 6 -1 6 C-1.33 4.35 -1.66 2.7 -2 1 C-1.34 0.67 -0.68 0.34 0 0 Z " fill="#071737" transform="translate(109,102)"/>
<path d="M0 0 C0.99 0.66 1.98 1.32 3 2 C2.67 3.65 2.34 5.3 2 7 C0.35 6.67 -1.3 6.34 -3 6 C-3.33 5.01 -3.66 4.02 -4 3 C-2.68 3.33 -1.36 3.66 0 4 C0 2.68 0 1.36 0 0 Z " fill="#B7994E" transform="translate(96,132)"/>
<path d="M0 0 C0.99 0.33 1.98 0.66 3 1 C3 1.66 3 2.32 3 3 C6.465 2.505 6.465 2.505 10 2 C8.6875 3.5 8.6875 3.5 7 5 C6.01 5 5.02 5 4 5 C4 5.66 4 6.32 4 7 C3.34 7 2.68 7 2 7 C2 6.01 2 5.02 2 4 C1.34 4 0.68 4 0 4 C0 2.68 0 1.36 0 0 Z " fill="#040D3C" transform="translate(101,131)"/>
<path d="M0 0 C0.99 0.66 1.98 1.32 3 2 C2.67 2.66 2.34 3.32 2 4 C2.99 4.33 3.98 4.66 5 5 C1.77208445 7.1519437 0.71599191 7.20086443 -3 7 C-3 6.01 -3 5.02 -3 4 C-2.34 3.67 -1.68 3.34 -1 3 C-0.67 2.01 -0.34 1.02 0 0 Z " fill="#1F274A" transform="translate(119,124)"/>
<path d="M0 0 C2 2 2 2 2.1875 5.5 C2 9 2 9 1 11 C0.01 10.67 -0.98 10.34 -2 10 C-1.46274105 6.62294375 -0.88935377 3.303314 0 0 Z " fill="#2C3D5B" transform="translate(35,100)"/>
<path d="M0 0 C0 4.75860702 -0.60295435 8.84512088 -3 13 C-4.47692308 5.73846154 -4.47692308 5.73846154 -2.0625 2 C-1.381875 1.34 -0.70125 0.68 0 0 Z " fill="#231F20" transform="translate(67,83)"/>
<path d="M0 0 C2.31 0 4.62 0 7 0 C7.66 1.98 8.32 3.96 9 6 C8.34 6 7.68 6 7 6 C7 5.01 7 4.02 7 3 C6.34 3 5.68 3 5 3 C4.67 3.99 4.34 4.98 4 6 C4 5.34 4 4.68 4 4 C2.68 3.34 1.36 2.68 0 2 C0 1.34 0 0.68 0 0 Z " fill="#1E284F" transform="translate(117,77)"/>
<path d="M0 0 C0.33 0 0.66 0 1 0 C1 1.65 1 3.3 1 5 C0.01 5 -0.98 5 -2 5 C-2 5.66 -2 6.32 -2 7 C-0.68 7.33 0.64 7.66 2 8 C0.35 8.33 -1.3 8.66 -3 9 C-3.33 8.01 -3.66 7.02 -4 6 C-2.125 2.8125 -2.125 2.8125 0 0 Z " fill="#C7A04F" transform="translate(67,125)"/>
<path d="M0 0 C-0.33 1.32 -0.66 2.64 -1 4 C-1.66 4 -2.32 4 -3 4 C-3.33 4.99 -3.66 5.98 -4 7 C-4.99 6.67 -5.98 6.34 -7 6 C-7 5.34 -7 4.68 -7 4 C-2.52941176 0 -2.52941176 0 0 0 Z " fill="#067C4F" transform="translate(39,147)"/>
<path d="M0 0 C1.74965358 -0.05429959 3.49979787 -0.09292823 5.25 -0.125 C6.22453125 -0.14820312 7.1990625 -0.17140625 8.203125 -0.1953125 C11.0196498 0.00137219 12.60949036 0.55431084 15 2 C14.67 2.66 14.34 3.32 14 4 C13.46375 3.67 12.9275 3.34 12.375 3 C8.24626323 1.26158452 4.21724843 1.7023851 0 3 C0 2.01 0 1.02 0 0 Z " fill="#CBA33A" transform="translate(55,110)"/>
<path d="M0 0 C0.66 0 1.32 0 2 0 C2.33 1.32 2.66 2.64 3 4 C2.01 4 1.02 4 0 4 C0 4.66 0 5.32 0 6 C-1.65 6 -3.3 6 -5 6 C-3.38405168 3.95880212 -1.7143618 1.95927063 0 0 Z " fill="#031037" transform="translate(50,119)"/>
<path d="M0 0 C0.33 1.32 0.66 2.64 1 4 C1.66 3.34 2.32 2.68 3 2 C5.125 2.375 5.125 2.375 7 3 C5.8125 4.5625 5.8125 4.5625 4 6 C1.3125 5.6875 1.3125 5.6875 -1 5 C-0.67 3.35 -0.34 1.7 0 0 Z " fill="#BA9F4F" transform="translate(71,87)"/>
<path d="M0 0 C2.64 1.98 5.28 3.96 8 6 C7.34 6.66 6.68 7.32 6 8 C5.67 7.01 5.34 6.02 5 5 C2.03 4.505 2.03 4.505 -1 4 C-0.67 2.68 -0.34 1.36 0 0 Z " fill="#1B1B23" transform="translate(108,118)"/>
<path d="M0 0 C1.32 1.32 2.64 2.64 4 4 C3.34 4.66 2.68 5.32 2 6 C1.01 6 0.02 6 -1 6 C-1.66 5.01 -2.32 4.02 -3 3 C-2.01 2.01 -1.02 1.02 0 0 Z " fill="#293456" transform="translate(108,64)"/>
<path d="M0 0 C5.875 4.625 5.875 4.625 7 8 C3.74456771 7.65120368 2.98126893 6.97866739 0.75 4.4375 C-0.11625 3.2309375 -0.11625 3.2309375 -1 2 C-0.67 1.34 -0.34 0.68 0 0 Z " fill="#231B22" transform="translate(86,130)"/>
<path d="M0 0 C1.67542976 0.28604898 3.34385343 0.61781233 5 1 C4.6875 2.875 4.6875 2.875 4 5 C3.01 5.66 2.02 6.32 1 7 C1.33 5.35 1.66 3.7 2 2 C1.01 1.67 0.02 1.34 -1 1 C-0.67 0.67 -0.34 0.34 0 0 Z " fill="#C6A54E" transform="translate(69,123)"/>
<path d="M0 0 C2.0625 2.3125 2.0625 2.3125 4 5 C3.67 5.99 3.34 6.98 3 8 C3 7.34 3 6.68 3 6 C2.01 5.67 1.02 5.34 0 5 C-0.33 4.34 -0.66 3.68 -1 3 C-1 4.65 -1 6.3 -1 8 C-1.33 8 -1.66 8 -2 8 C-2 6.02 -2 4.04 -2 2 C-1.34 2 -0.68 2 0 2 C0 1.34 0 0.68 0 0 Z " fill="#495374" transform="translate(57,39)"/>
<path d="M0 0 C1.98 0 3.96 0 6 0 C6 0.66 6 1.32 6 2 C5.071875 2.4021875 5.071875 2.4021875 4.125 2.8125 C1.7004767 3.95556848 1.7004767 3.95556848 0 7 C0 4.69 0 2.38 0 0 Z " fill="#02253D" transform="translate(87,166)"/>
<path d="M0 0 C0.66 0.33 1.32 0.66 2 1 C1.34 2.98 0.68 4.96 0 7 C-0.99 6.67 -1.98 6.34 -3 6 C-2.42655063 3.13275314 -2.1385485 2.1385485 0 0 Z " fill="#03794D" transform="translate(22,131)"/>
<path d="M0 0 C1.1725131 0.95117134 2.33787015 1.91117009 3.5 2.875 C4.47453125 3.67550781 4.47453125 3.67550781 5.46875 4.4921875 C5.9740625 4.98976563 6.479375 5.48734375 7 6 C7 6.66 7 7.32 7 8 C6.01 8 5.02 8 4 8 C0 2.74285714 0 2.74285714 0 0 Z " fill="#BDA049" transform="translate(109,109)"/>
<path d="M0 0 C1.98 0.99 1.98 0.99 4 2 C3.67 3.65 3.34 5.3 3 7 C2.01 6.67 1.02 6.34 0 6 C0 4.02 0 2.04 0 0 Z " fill="#05123F" transform="translate(129,107)"/>
<path d="M0 0 C0.66 1.32 1.32 2.64 2 4 C1 7 1 7 -3 9 C-2.01 6.03 -1.02 3.06 0 0 Z " fill="#2B8063" transform="translate(11,53)"/>
<path d="M0 0 C2 3 2 3 3 6 C2.5625 8.1875 2.5625 8.1875 2 10 C1.01 9.67 0.02 9.34 -1 9 C-0.835 8.2575 -0.67 7.515 -0.5 6.75 C0.11925696 3.80993422 0.11925696 3.80993422 0 0 Z " fill="#051041" transform="translate(115,42)"/>
<path d="M0 0 C2 1 2 1 4 4 C3.67 4.66 3.34 5.32 3 6 C1.0625 5.1875 1.0625 5.1875 -1 4 C-1.33 3.01 -1.66 2.02 -2 1 C-1.34 0.67 -0.68 0.34 0 0 Z " fill="#1B2346" transform="translate(81,145)"/>
<path d="M0 0 C0.33 0.66 0.66 1.32 1 2 C4.02934491 2.65772428 4.02934491 2.65772428 7 3 C7.33 4.65 7.66 6.3 8 8 C7.236875 7.360625 6.47375 6.72125 5.6875 6.0625 C3.11753287 3.85767219 3.11753287 3.85767219 0 3 C0 2.01 0 1.02 0 0 Z " fill="#B7943C" transform="translate(80,123)"/>
<path d="M0 0 C2.125 0.9375 2.125 0.9375 4 2 C3.0409375 2.433125 3.0409375 2.433125 2.0625 2.875 C-0.15206079 3.82823451 -0.15206079 3.82823451 -1 6 C-1.33 4.35 -1.66 2.7 -2 1 C-1.34 0.67 -0.68 0.34 0 0 Z " fill="#17234B" transform="translate(128,113)"/>
<path d="M0 0 C1.32 1.32 2.64 2.64 4 4 C2.35 4.66 0.7 5.32 -1 6 C-1.66 5.01 -2.32 4.02 -3 3 C-2.01 2.01 -1.02 1.02 0 0 Z " fill="#253055" transform="translate(60,51)"/>
<path d="M0 0 C0 1.32 0 2.64 0 4 C-1.98 4 -3.96 4 -6 4 C-5.67 3.01 -5.34 2.02 -5 1 C-3 0 -3 0 0 0 Z " fill="#07103F" transform="translate(125,49)"/>
<path d="M0 0 C1.4540625 0.0309375 1.4540625 0.0309375 2.9375 0.0625 C2.9375 1.3825 2.9375 2.7025 2.9375 4.0625 C-0.02425123 3.44972388 -1.44308783 2.80877478 -4.0625 1.0625 C-3.0625 0.0625 -3.0625 0.0625 0 0 Z " fill="#040B3E" transform="translate(123.0625,36.9375)"/>
<path d="M0 0 C0.99 0.33 1.98 0.66 3 1 C3 2.32 3 3.64 3 5 C1.68 5 0.36 5 -1 5 C-0.67 3.35 -0.34 1.7 0 0 Z " fill="#A5B0C2" transform="translate(85,139)"/>
<path d="M0 0 C2 3 2 3 3 6 C2.01 6.33 1.02 6.66 0 7 C-0.12375 6.195625 -0.2475 5.39125 -0.375 4.5625 C-0.684375 3.2940625 -0.684375 3.2940625 -1 2 C-1.66 1.67 -2.32 1.34 -3 1 C-2.01 0.67 -1.02 0.34 0 0 Z " fill="#E9B12B" transform="translate(88,124)"/>
<path d="M0 0 C0.33 0.66 0.66 1.32 1 2 C0.67 2.99 0.34 3.98 0 5 C0.99 5.33 1.98 5.66 3 6 C1.35 6.33 -0.3 6.66 -2 7 C-2.125 4.625 -2.125 4.625 -2 2 C-1.34 1.34 -0.68 0.68 0 0 Z " fill="#CBAD52" transform="translate(57,120)"/>
<path d="M0 0 C2.475 0.99 2.475 0.99 5 2 C4.67 3.98 4.34 5.96 4 8 C2 4.25 2 4.25 2 2 C1.01 1.67 0.02 1.34 -1 1 C-0.67 0.67 -0.34 0.34 0 0 Z " fill="#24785A" transform="translate(36,70)"/>
<path d="M0 0 C0.99 0 1.98 0 3 0 C3 1.65 3 3.3 3 5 C2.01 5.495 2.01 5.495 1 6 C0.01 4.68 -0.98 3.36 -2 2 C-1.34 1.34 -0.68 0.68 0 0 Z " fill="#17244D" transform="translate(58,69)"/>
<path d="M0 0 C-3.28463659 2.18975773 -6.20696275 2.99806563 -10 4 C-10 3.01 -10 2.02 -10 1 C-6.59437148 0.22157062 -3.49234244 -0.09978121 0 0 Z " fill="#257E5D" transform="translate(64,18)"/>
<path d="M0 0 C0.66 0.33 1.32 0.66 2 1 C2 2.65 2 4.3 2 6 C0.0625 5.1875 0.0625 5.1875 -2 4 C-2.33 3.01 -2.66 2.02 -3 1 C-2.01 0.67 -1.02 0.34 0 0 Z " fill="#09103D" transform="translate(66,136)"/>
<path d="M0 0 C0.66 0.33 1.32 0.66 2 1 C1.3125 2.9375 1.3125 2.9375 0 5 C-2.625 5.75 -2.625 5.75 -5 6 C-5 5.34 -5 4.68 -5 4 C-3.35 3.67 -1.7 3.34 0 3 C0 2.01 0 1.02 0 0 Z " fill="#1A1E27" transform="translate(109,128)"/>
<path d="M0 0 C0.75 1.75 0.75 1.75 1 4 C-0.9375 6.25 -0.9375 6.25 -3 8 C-2.74438677 5.6568787 -2.40729228 3.32156597 -2 1 C-1.34 0.67 -0.68 0.34 0 0 Z " fill="#0E183E" transform="translate(127,120)"/>
<path d="M0 0 C0.66 0.33 1.32 0.66 2 1 C2 1.66 2 2.32 2 3 C1.34 3 0.68 3 0 3 C0 3.99 0 4.98 0 6 C-0.99 5.67 -1.98 5.34 -3 5 C-3.33 4.01 -3.66 3.02 -4 2 C-2.125 0.9375 -2.125 0.9375 0 0 Z " fill="#D9AA34" transform="translate(112,95)"/>
<path d="M0 0 C-1.125 1.5625 -1.125 1.5625 -3 3 C-6.1875 2.6875 -6.1875 2.6875 -9 2 C-4 -1.33333333 -4 -1.33333333 0 0 Z " fill="#B2A264" transform="translate(71,80)"/>
<path d="M0 0 C1.32 0 2.64 0 4 0 C3.67 1.65 3.34 3.3 3 5 C1.68 4.01 0.36 3.02 -1 2 C-0.67 1.34 -0.34 0.68 0 0 Z " fill="#091342" transform="translate(88,38)"/>
</svg>
