<?xml version="1.0" encoding="UTF-8"?>
<svg version="1.1" xmlns="http://www.w3.org/2000/svg" width="246" height="165">
<path d="M0 0 C81.18 0 162.36 0 246 0 C246 54.45 246 108.9 246 165 C164.82 165 83.64 165 0 165 C0 110.55 0 56.1 0 0 Z " fill="#FDFEFE" transform="translate(0,0)"/>
<path d="M0 0 C1.32 0 2.64 0 4 0 C4.33 0.66 4.66 1.32 5 2 C6.6347096 2.93836577 8.27215361 3.87228037 9.92285156 4.78222656 C13.7644492 7.03444671 17.29335665 9.73589438 20.875 12.375 C26.82058765 16.7398568 32.82961781 20.95771407 39 25 C38.44894091 28.9492568 37.61064629 32.34920174 36 36 C36.71285156 36.26683594 37.42570312 36.53367188 38.16015625 36.80859375 C42.0308829 38.4324887 45.55961956 40.5517559 49.18359375 42.66015625 C55.49743379 45.66382772 63.67347466 46.1729421 70.43505859 44.33984375 C72.87862485 43.4489134 75.28238937 42.4898479 77.6875 41.5 C85.61462135 38.43019429 91.2907117 37.70693868 99.77734375 38.21484375 C104.49330489 37.90044634 106.93388562 35.82505159 110.265625 32.62890625 C114.73889638 28.42765813 122.01875935 29.73432386 127.75 29.6875 C128.91789063 29.65849609 130.08578125 29.62949219 131.2890625 29.59960938 C138.11082935 29.54933558 142.48969001 29.85187558 148 34 C148.66 34.66 149.32 35.32 150 36 C155.0165166 36.47325628 157.91526758 35.97071449 162 33 C161.67 30.03 161.34 27.06 161 24 C161.95132813 23.37738281 161.95132813 23.37738281 162.921875 22.7421875 C169.89510396 18.13831534 176.77375457 13.40810703 183.625 8.625 C184.51413086 8.00608887 185.40326172 7.38717773 186.31933594 6.74951172 C187.57278809 5.87190186 187.57278809 5.87190186 188.8515625 4.9765625 C189.97812256 4.18886475 189.97812256 4.18886475 191.12744141 3.38525391 C193.10447252 1.9941505 193.10447252 1.9941505 195 0 C197.625 0.375 197.625 0.375 200 1 C201.38268528 9.16402794 202.76511191 17.32809962 204.14722919 25.49222374 C204.78935612 29.285201 205.43156447 33.07816444 206.07397461 36.87109375 C206.32470842 38.35156226 206.57544085 39.83203101 206.82617188 41.3125 C206.94921629 42.03896351 207.0722607 42.76542702 207.19903374 43.51390457 C207.80805475 47.11040661 208.41637147 50.70702541 209.02322388 54.30389404 C210.01551827 60.18483734 211.00872135 66.06550995 212.02490234 71.94238281 C212.16888962 72.78282135 212.31287689 73.62325989 212.46122742 74.48916626 C212.71180796 75.95098468 212.9653831 77.41229535 213.22297668 78.87289429 C213.81740968 82.36369987 214 85.4134399 214 89 C204.43 89 194.86 89 185 89 C185 88.34 185 87.68 185 87 C182.58239124 87.11426509 180.16652782 87.24099661 177.75 87.375 C177.06808594 87.4059375 176.38617188 87.436875 175.68359375 87.46875 C171.94944776 87.68627307 169.24886835 88.1669229 166 90 C165.01 90 164.02 90 163 90 C163.10441406 91.09054688 163.10441406 91.09054688 163.2109375 92.203125 C163.78445708 102.85420299 160.04723633 111.05609741 153 119 C151.6696875 119.495 151.6696875 119.495 150.3125 120 C149.1678125 120.495 149.1678125 120.495 148 121 C147.87625 121.7425 147.7525 122.485 147.625 123.25 C146.78097903 126.96369229 145.02726345 128.35671937 142.12109375 130.70703125 C138.64407265 132.82654135 134.99673482 133.47435234 131 134 C130.86851562 134.60714844 130.73703125 135.21429688 130.6015625 135.83984375 C129.36747773 140.27132997 126.77069006 142.55299977 122.875 144.8125 C116.34174698 147.25899475 109.8092722 146.23822458 103.1875 144.6875 C100.48430748 144.08030415 100.48430748 144.08030415 98 144 C95.0424351 145.95726583 95.0424351 145.95726583 93 149 C88.16913319 153.83086681 88.16913319 153.83086681 84.83984375 154.3125 C82.625 154.3125 82.625 154.3125 79 154 C79 152.68 79 151.36 79 150 C80.4540625 149.7834375 80.4540625 149.7834375 81.9375 149.5625 C87.6025156 147.94392411 91.44829858 143.50567081 95 139 C96.1624305 136.54101241 96.59591153 134.71316545 97 132 C97.99 132 98.98 132 100 132 C100.495 135.465 100.495 135.465 101 139 C111.67678668 140.71297224 111.67678668 140.71297224 122 138.6875 C124.26489937 137.073876 124.26489937 137.073876 125 134 C124.41476563 133.85304687 123.82953125 133.70609375 123.2265625 133.5546875 C116.89061933 131.89935099 110.62004881 130.03025383 104.375 128.0625 C103.56885254 127.82192871 102.76270508 127.58135742 101.93212891 127.33349609 C99.6484375 126.59765625 99.6484375 126.59765625 96 125 C95.27197266 122.90014648 95.27197266 122.90014648 95 121 C99.13268481 119.84140411 101.55716503 120.21616316 105.5703125 121.65234375 C106.6325 122.01650391 107.6946875 122.38066406 108.7890625 122.75585938 C110.99097024 123.53580913 113.19152626 124.31958686 115.390625 125.10742188 C122.29160511 127.46456388 128.67464825 129.0569979 136 128 C139.00197464 126.19881522 140.45166366 125.09667268 142 122 C140.79214844 121.9175 139.58429688 121.835 138.33984375 121.75 C131.84037056 121.02684608 125.77083543 118.98057327 119.5625 117 C118.37978516 116.63132812 117.19707031 116.26265625 115.97851562 115.8828125 C107.35651882 113.17825941 107.35651882 113.17825941 105 112 C105 110.68 105 109.36 105 108 C110.03425545 108.63989239 114.89440514 109.61449991 119.8125 110.875 C120.51246094 111.05063477 121.21242187 111.22626953 121.93359375 111.40722656 C125.83594351 112.39901379 129.66998621 113.50301877 133.5 114.75 C138.92516072 116.40946092 143.5860068 117.07859271 148.9375 114.6875 C151.26746003 113.08760823 151.26746003 113.08760823 152 110 C150.98848877 109.88591797 149.97697754 109.77183594 148.93481445 109.65429688 C145.02230927 109.00370968 141.73760362 107.95526908 138.04296875 106.53125 C137.41393143 106.29088013 136.7848941 106.05051025 136.13679504 105.80285645 C134.15100345 105.04203639 132.1693203 104.27109685 130.1875 103.5 C128.83944101 102.98242572 127.49113561 102.46549279 126.14257812 101.94921875 C116.45977425 98.22988713 116.45977425 98.22988713 114 97 C114 95.68 114 94.36 114 93 C122.55789694 93.49393132 130.1732121 96.81943337 138.09936523 99.85791016 C139.95156155 100.56430263 141.80971271 101.25501835 143.66796875 101.9453125 C145.31188599 102.57203857 145.31188599 102.57203857 146.98901367 103.21142578 C150.16522507 104.04327228 151.90051136 103.98834398 155 103 C156.49743119 101.50256881 156.33202693 100.01175761 156.5625 97.9375 C156.706875 96.638125 156.85125 95.33875 157 94 C156.26136719 94.05800781 155.52273437 94.11601563 154.76171875 94.17578125 C145.34286258 94.59466304 138.86727661 92.21033138 131.0625 87.0625 C128.58560213 84.58560213 126.77128835 82.01775052 125 79 C125 78.34 125 77.68 125 77 C124.34 77 123.68 77 123 77 C122.54625 75.865625 122.0925 74.73125 121.625 73.5625 C120.42904194 69.95278308 120.42904194 69.95278308 118 69 C115.6670134 68.95977609 113.33293334 68.95679753 111 69 C109.35 72.96 107.7 76.92 106 81 C105.34 81 104.68 81 104 81 C103.773125 81.5775 103.54625 82.155 103.3125 82.75 C101.57972661 85.72046866 99.92466456 87.18020872 97 89 C91.20559331 89.87462742 86.77361832 88.19017419 82 85 C79.7277465 80.45549299 80.93734433 75.84559884 82.4375 71.25 C82.72238281 70.40050781 83.00726563 69.55101563 83.30078125 68.67578125 C84.04453437 65.82957517 84.1044847 63.37118824 84.125 60.4375 C84.42040324 55.48597895 85.98849183 53.39362161 89.5 49.9375 C91.75 47.96875 91.75 47.96875 94 46 C94.495 45.01 94.495 45.01 95 44 C86.84006557 44.87100424 80.12091 45.83493943 73 50 C65.58783528 52.47072157 56.35099156 52.07660313 49.25 48.875 C47.48329976 47.94781446 45.73343472 46.9879812 44 46 C42.97003906 45.44957031 41.94007812 44.89914063 40.87890625 44.33203125 C38.23643949 42.91486118 35.61292272 41.47071666 33 40 C32.84241211 41.01912476 32.84241211 41.01912476 32.68164062 42.05883789 C31.86638381 45.57653087 30.53042852 48.76194274 29.09375 52.05859375 C28.50903811 53.42770172 27.92440512 54.79684339 27.33984375 56.16601562 C26.42021266 58.30404743 25.49843197 60.44112633 24.57470703 62.57739258 C23.67963576 64.6521133 22.79263041 66.73014831 21.90625 68.80859375 C21.63018921 69.44002792 21.35412842 70.0714621 21.06970215 70.72203064 C19.47589383 74.46859827 18.5041791 77.96076758 18 82 C19.07314453 82.38285156 19.07314453 82.38285156 20.16796875 82.7734375 C29.43167709 86.78558152 38.40627911 94.60941866 44 103 C46.54169246 101.87035891 48.16745188 100.83733246 50.1875 98.875 C53.61157839 96.59228107 55.7940539 96.36345226 59.83984375 96.5390625 C63.36053644 97.29031338 64.95090794 99.15771102 67 102 C67 102.99 67 103.98 67 105 C68.5778125 105.0928125 68.5778125 105.0928125 70.1875 105.1875 C74.70459275 106.15015911 76.25177691 107.33570254 79 111 C79.3125 113.8125 79.3125 113.8125 79 116 C78.67 115.34 78.34 114.68 78 114 C77.01 114.495 77.01 114.495 76 115 C75.34786708 117.02463255 75.34786708 117.02463255 75 119 C74.34 118.67 73.68 118.34 73 118 C73.04125 117.21625 73.0825 116.4325 73.125 115.625 C73.28728734 112.83883881 73.28728734 112.83883881 71 111 C66.2642857 111.16913265 63.99973531 113.43289982 60.75 116.6875 C59.44289062 117.96173828 59.44289062 117.96173828 58.109375 119.26171875 C55.75793008 122.31424262 55.19208197 124.1850387 55 128 C55.33 128.66 55.66 129.32 56 130 C58.33165034 130.33498301 58.33165034 130.33498301 61 130 C63.18777466 128.0624994 63.18777466 128.0624994 65 126 C65.66 126 66.32 126 67 126 C67.495 124.515 67.495 124.515 68 123 C68.66 123 69.32 123 70 123 C70.495 121.515 70.495 121.515 71 120 C73.64 120.33 76.28 120.66 79 121 C78.360625 121.639375 77.72125 122.27875 77.0625 122.9375 C76.61777344 123.38996094 76.17304687 123.84242188 75.71484375 124.30859375 C74.38227544 125.62294928 73.01251202 126.89963896 71.62890625 128.16015625 C70.38947266 129.31837891 70.38947266 129.31837891 69.125 130.5 C68.32320313 131.2321875 67.52140625 131.964375 66.6953125 132.71875 C64.7051025 134.88188497 64.7051025 134.88188497 65.17578125 137.64453125 C65.95859549 139.88167336 66.91280288 141.89808558 68 144 C68 144.66 68 145.32 68 146 C69.32 146.33 70.64 146.66 72 147 C67.85475329 147.49348175 66.220039 147.13854307 62.625 144.875 C60 142 60 142 59.625 138.6875 C59.810625 137.3571875 59.810625 137.3571875 60 136 C58.9275 135.938125 57.855 135.87625 56.75 135.8125 C53 135 53 135 50.5625 132.6875 C49 130 49 130 49 126 C48.278125 125.938125 47.55625 125.87625 46.8125 125.8125 C43.1410973 124.75187255 41.52297062 122.80330069 39 120 C38.67 119.67 38.34 119.34 38 119 C37.85884839 116.32941149 37.95752893 113.67567762 38 111 C38.99 110.67 39.98 110.34 41 110 C35.25312001 98.50624002 25.66290643 92.46962862 15 86 C14.67 86.99 14.34 87.98 14 89 C4.76 89 -4.48 89 -14 89 C-14 82.72558559 -13.76224908 77.48575975 -12.57421875 71.46875 C-12.27042257 69.84897432 -11.96671499 68.22918202 -11.66308594 66.609375 C-11.42374329 65.35737305 -11.42374329 65.35737305 -11.17956543 64.08007812 C-8.63876787 50.75775187 -6.38773529 37.50534717 -4.92700195 24.01757812 C-2.58020924 2.58020924 -2.58020924 2.58020924 0 0 Z " fill="#209CE9" transform="translate(25,6)"/>
<path d="M0 0 C2.92473715 1.12222512 5.47350953 2.27853502 8.1875 3.875 C17.7326903 9.31187499 25.88482195 11.2458771 37 10 C39.52565775 9.2121126 41.68909463 8.25618036 44.0234375 7.0234375 C49.77894843 4.04331129 55.63867848 3.77280995 62 4 C60.63475341 7.19467702 59.24327112 8.68092263 56.5 10.75 C51.72391663 15.27887408 51.82632749 21.07655721 51.38671875 27.2578125 C51.03463474 30.66484771 50.29922284 32.89133321 49 36 C48.76130811 38.43793514 48.76130811 38.43793514 48.875 40.8125 C48.89304688 41.60269531 48.91109375 42.39289063 48.9296875 43.20703125 C48.95289063 43.79871094 48.97609375 44.39039063 49 45 C54.23895297 47.12389985 58.25988498 48.58374051 64 48 C66.97551795 46.22396702 69.42755188 44.14489623 71 41 C71.66 41 72.32 41 73 41 C73.19335938 40.31292969 73.38671875 39.62585938 73.5859375 38.91796875 C73.84632813 38.01691406 74.10671875 37.11585937 74.375 36.1875 C74.63023437 35.29417969 74.88546875 34.40085938 75.1484375 33.48046875 C76 31 76 31 78 28 C81.92211706 27.49157742 84.10150519 27.36159579 87.375 29.6875 C89.13434402 32.19118187 89.66466723 33.98200506 90 37 C90.66 37 91.32 37 92 37 C93.11328125 38.609375 93.11328125 38.609375 94.3125 40.75 C98.5656984 47.73212916 104.25282632 50.778931 112 53 C115.99807464 53.56980805 119.96528599 53.86135003 124 54 C124.35915493 61.3028169 124.35915493 61.3028169 122.9375 64.0625 C119.08185262 65.92813583 114.63005589 64.19475647 110.71435547 62.984375 C109.60979004 62.57703125 108.50522461 62.1696875 107.3671875 61.75 C106.14902344 61.3065625 104.93085938 60.863125 103.67578125 60.40625 C102.40867227 59.93799192 101.14174663 59.46923743 99.875 59 C97.37402174 58.07875438 94.87106147 57.16339623 92.3671875 56.25 C91.26487793 55.84265625 90.16256836 55.4353125 89.02685547 55.015625 C86.34761727 54.1166388 83.78125236 53.47549402 81 53 C81 54.32 81 55.64 81 57 C81.57830566 57.16290527 82.15661133 57.32581055 82.75244141 57.49365234 C89.76711558 59.52731257 96.55765302 62.0126668 103.375 64.625 C105.48621053 65.43170197 107.59816021 66.23647289 109.7109375 67.0390625 C110.63181152 67.39178223 111.55268555 67.74450195 112.50146484 68.10791016 C114.65891467 68.87821714 116.76791669 69.4953494 119 70 C118.70049983 72.8951683 118.19065168 73.83823494 115.9375 75.75 C108.88588714 78.75068632 102.22741265 76.45733142 95.3125 74.1875 C87.59185093 71.75459447 79.93080367 69.64983872 72 68 C72 69.32 72 70.64 72 72 C72.64582031 72.14695312 73.29164063 72.29390625 73.95703125 72.4453125 C81.54076176 74.2504686 88.91992162 76.49554058 96.32348633 78.93017578 C100.53952877 80.29926469 104.58617568 81.41811319 109 82 C107.59449955 85.39662609 106.1172492 87.05670883 103 89 C94.6344099 90.54876348 86.86006065 87.74934836 79.0625 85 C76.86760367 84.24498627 74.67105042 83.49476754 72.47265625 82.75 C71.51625244 82.41484375 70.55984863 82.0796875 69.57446289 81.734375 C66.80509881 80.81712561 66.80509881 80.81712561 63 81 C63 82.32 63 83.64 63 85 C64.29035156 85.26683594 65.58070312 85.53367187 66.91015625 85.80859375 C71.87191424 86.9117466 76.63222478 88.4180636 81.4375 90.0625 C82.23865234 90.33126953 83.03980469 90.60003906 83.86523438 90.87695312 C89.68823052 92.84411526 89.68823052 92.84411526 92 94 C91.70488433 96.85278483 91.18767059 97.83578823 89 99.75 C82.11713839 102.617859 74.97756212 100.8474869 68 99 C67.505 95.535 67.505 95.535 67 92 C65.515 92.495 65.515 92.495 64 93 C63.7215625 94.4540625 63.7215625 94.4540625 63.4375 95.9375 C61.98571719 101.89353204 56.82737631 106.53293927 52 110 C48.671875 110.28515625 48.671875 110.28515625 46 110 C46 111.32 46 112.64 46 114 C44.125 113.375 44.125 113.375 42 112 C40.75 108.875 40.75 108.875 40 106 C38.35 106 36.7 106 35 106 C34.71125 105.21625 34.4225 104.4325 34.125 103.625 C33.15087746 100.90328368 33.15087746 100.90328368 31 99 C30.99357138 95.32925924 32.28778493 93.44463508 34.72265625 90.88671875 C35.82588423 89.8099154 36.93954734 88.74371719 38.0625 87.6875 C38.63033203 87.13771484 39.19816406 86.58792969 39.78320312 86.02148438 C41.17990925 84.67172635 42.58878837 83.33458475 44 82 C41.03 81.505 41.03 81.505 38 81 C37.46375 81.721875 36.9275 82.44375 36.375 83.1875 C30.10023866 90.61813842 30.10023866 90.61813842 25.25 91.5 C23 91 23 91 21 88 C21.02782505 83.04018555 22.78683141 80.55135077 26.109375 77.15820312 C26.65078125 76.63162109 27.1921875 76.10503906 27.75 75.5625 C28.2759375 75.00884766 28.801875 74.45519531 29.34375 73.88476562 C30.921875 72.31640625 30.921875 72.31640625 34 70 C37.50449282 70.03464894 38.52232706 70.52232706 41 73 C41.04063832 74.66617115 41.042721 76.33388095 41 78 C41.33 78.33 41.66 78.66 42 79 C42.33 77.35 42.66 75.7 43 74 C43.66 74 44.32 74 45 74 C45 72.35 45 70.7 45 69 C42.43356741 67.56279775 40.34769729 66.85122921 37.4375 66.1875 C34 65 34 65 32.1875 62.5 C31.795625 61.675 31.40375 60.85 31 60 C28.66373495 57.66373495 28.01046981 57.63210202 24.8125 57.5 C19.93949027 57.56308103 17.61461216 59.35711462 14.21484375 62.6875 C13.81394531 63.120625 13.41304687 63.55375 13 64 C9.66353464 62.5836449 7.84455707 60.91828002 5.5625 58.125 C0.49873607 51.94509321 -5.75057662 48.24754541 -12.55078125 44.1953125 C-15 42 -15 42 -15.3581543 39.39160156 C-14.89723022 35.02680453 -13.45489429 31.54194619 -11.71875 27.5390625 C-11.38580933 26.74849457 -11.05286865 25.95792664 -10.70983887 25.1434021 C-9.64986505 22.63290348 -8.57520747 20.12900667 -7.5 17.625 C-6.77636372 15.91838397 -6.0536966 14.21135665 -5.33203125 12.50390625 C-3.56587527 8.33109116 -1.78652827 4.16413132 0 0 Z " fill="#F9FCFE" transform="translate(58,46)"/>
<path d="M0 0 C1.04607422 -0.020625 2.09214844 -0.04125 3.16992188 -0.0625 C4.18248047 -0.06765625 5.19503906 -0.0728125 6.23828125 -0.078125 C7.62527222 -0.09214355 7.62527222 -0.09214355 9.0402832 -0.10644531 C13.02531423 0.43013546 15.63586129 2.3611149 18.65625 4.9140625 C21.28893564 6.6455596 23.05872912 6.65078657 26.1875 6.625 C27.1259375 6.63273437 28.064375 6.64046875 29.03125 6.6484375 C32.07396577 6.19203013 33.29277502 5.08663229 35.6875 3.25 C38.6875 4.25 38.6875 4.25 39.86328125 6.41015625 C40.23839844 7.36792969 40.61351562 8.32570313 41 9.3125 C41.42925781 10.39660156 41.85851562 11.48070312 42.30078125 12.59765625 C44.03201491 17.15738433 45.75332324 21.72062963 47.44311523 26.29589844 C49.39874162 31.56929798 51.5451822 36.74314338 53.8046875 41.89453125 C54.6875 44.25 54.6875 44.25 54.6875 47.25 C53.68589844 47.27578125 52.68429688 47.3015625 51.65234375 47.328125 C44.39167844 47.60618915 38.78460355 47.95431341 32.6875 52.25 C31.6975 52.25 30.7075 52.25 29.6875 52.25 C29.6875 52.91 29.6875 53.57 29.6875 54.25 C19.59636281 54.65424437 13.42235804 54.17066246 5.6875 47.25 C2.75894117 44.13840624 1.03953072 40.9605051 -0.75 37.125 C-2.18854587 34.20444765 -3.17995476 32.37518162 -5.5625 30.125 C-10.3029283 28.61668191 -15.01344615 28.34247874 -19.6875 30.1875 C-21.39977556 32.36077283 -21.90058757 33.87546821 -22.6875 36.5 C-24.16506347 41.32776086 -26.12067091 45.25583637 -30.3125 48.25 C-33.32878377 48.98122031 -35.1436795 48.71753089 -38.3125 48.25 C-39.3025 47.59 -40.2925 46.93 -41.3125 46.25 C-41.13517894 44.22853992 -40.93836881 42.20797928 -40.6796875 40.1953125 C-40.41496242 38.07187944 -40.22036399 35.93929094 -40.0703125 33.8046875 C-38.62950576 21.69685538 -32.47292392 15.71673224 -23.3125 8.25 C-14.95386523 1.73939884 -10.49119339 0.05114537 0 0 Z " fill="#FAFDFE" transform="translate(152.3125,40.75)"/>
<path d="M0 0 C2.625 0.375 2.625 0.375 5 1 C6.38268528 9.16402794 7.76511191 17.32809962 9.14722919 25.49222374 C9.78935612 29.285201 10.43156447 33.07816444 11.07397461 36.87109375 C11.32470842 38.35156226 11.57544085 39.83203101 11.82617188 41.3125 C12.0107385 42.40219526 12.0107385 42.40219526 12.19903374 43.51390457 C12.80805475 47.11040661 13.41637147 50.70702541 14.02322388 54.30389404 C15.01551827 60.18483734 16.00872135 66.06550995 17.02490234 71.94238281 C17.24088326 73.20304062 17.24088326 73.20304062 17.46122742 74.48916626 C17.71180796 75.95098468 17.9653831 77.41229535 18.22297668 78.87289429 C18.81740968 82.36369987 19 85.4134399 19 89 C9.43 89 -0.14 89 -10 89 C-10 88.01 -10 87.02 -10 86 C-11.80597656 86.01740234 -11.80597656 86.01740234 -13.6484375 86.03515625 C-15.22395679 86.04453434 -16.79947775 86.05363452 -18.375 86.0625 C-19.1690625 86.07087891 -19.963125 86.07925781 -20.78125 86.08789062 C-26.7734375 86.11328125 -26.7734375 86.11328125 -29 85 C-28.505 83.515 -28.505 83.515 -28 82 C-23.05 82 -18.1 82 -13 82 C-13.73605469 80.21335937 -14.47210938 78.42671875 -15.23046875 76.5859375 C-24.71208496 53.49131367 -24.71208496 53.49131367 -28.1953125 43.30859375 C-28.94043748 41.01253894 -28.94043748 41.01253894 -30 39 C-30.81210938 39.49113281 -30.81210938 39.49113281 -31.640625 39.9921875 C-34.50719067 41.21664767 -36.6452987 41.19892146 -39.75 41.125 C-41.22726563 41.09792969 -41.22726563 41.09792969 -42.734375 41.0703125 C-43.48203125 41.04710937 -44.2296875 41.02390625 -45 41 C-44.67 40.34 -44.34 39.68 -44 39 C-42.68 39.33 -41.36 39.66 -40 40 C-40 39.34 -40 38.68 -40 38 C-40.66 37.67 -41.32 37.34 -42 37 C-40.88625 36.525625 -39.7725 36.05125 -38.625 35.5625 C-36.73289006 34.74693537 -34.84287291 33.92143645 -33 33 C-33.33 30.03 -33.66 27.06 -34 24 C-33.36578125 23.58492187 -32.7315625 23.16984375 -32.078125 22.7421875 C-25.10489604 18.13831534 -18.22624543 13.40810703 -11.375 8.625 C-10.48586914 8.00608887 -9.59673828 7.38717773 -8.68066406 6.74951172 C-7.8450293 6.16443848 -7.00939453 5.57936523 -6.1484375 4.9765625 C-5.39739746 4.45143066 -4.64635742 3.92629883 -3.87255859 3.38525391 C-1.89552748 1.9941505 -1.89552748 1.9941505 0 0 Z " fill="#1D9AE9" transform="translate(220,6)"/>
<path d="M0 0 C10.21680696 3.64491492 20.00102881 12.00154321 26 21 C28.54169246 19.87035891 30.16745188 18.83733246 32.1875 16.875 C35.61157839 14.59228107 37.7940539 14.36345226 41.83984375 14.5390625 C45.36053644 15.29031338 46.95090794 17.15771102 49 20 C49 20.99 49 21.98 49 23 C50.051875 23.061875 51.10375 23.12375 52.1875 23.1875 C56.70459275 24.15015911 58.25177691 25.33570254 61 29 C61.3125 31.8125 61.3125 31.8125 61 34 C60.67 33.34 60.34 32.68 60 32 C59.01 32.495 59.01 32.495 58 33 C57.34786708 35.02463255 57.34786708 35.02463255 57 37 C56.01 36.505 56.01 36.505 55 36 C55.04125 35.21625 55.0825 34.4325 55.125 33.625 C55.28728734 30.83883881 55.28728734 30.83883881 53 29 C48.2642857 29.16913265 45.99973531 31.43289982 42.75 34.6875 C41.87859375 35.53699219 41.0071875 36.38648438 40.109375 37.26171875 C37.75793008 40.31424262 37.19208197 42.1850387 37 46 C37.33 46.66 37.66 47.32 38 48 C40.33165034 48.33498301 40.33165034 48.33498301 43 48 C45.18777466 46.0624994 45.18777466 46.0624994 47 44 C47.66 44 48.32 44 49 44 C49.33 43.01 49.66 42.02 50 41 C50.66 41 51.32 41 52 41 C52.33 40.01 52.66 39.02 53 38 C55.64 38.33 58.28 38.66 61 39 C60.360625 39.639375 59.72125 40.27875 59.0625 40.9375 C58.39541016 41.61619141 58.39541016 41.61619141 57.71484375 42.30859375 C56.38227544 43.62294928 55.01251202 44.89963896 53.62890625 46.16015625 C52.80261719 46.93230469 51.97632813 47.70445312 51.125 48.5 C50.32320312 49.2321875 49.52140625 49.964375 48.6953125 50.71875 C46.7051025 52.88188497 46.7051025 52.88188497 47.17578125 55.64453125 C47.95859549 57.88167336 48.91280288 59.89808558 50 62 C50 62.66 50 63.32 50 64 C51.32 64.33 52.64 64.66 54 65 C49.85475329 65.49348175 48.220039 65.13854307 44.625 62.875 C42 60 42 60 41.625 56.6875 C41.810625 55.3571875 41.810625 55.3571875 42 54 C40.9275 53.938125 39.855 53.87625 38.75 53.8125 C35 53 35 53 32.5625 50.6875 C31 48 31 48 31 44 C30.278125 43.938125 29.55625 43.87625 28.8125 43.8125 C25.1410973 42.75187255 23.52297062 40.80330069 21 38 C20.505 37.505 20.505 37.505 20 37 C19.85884839 34.32941149 19.95752893 31.67567762 20 29 C20.99 28.67 21.98 28.34 23 28 C17.25312001 16.50624002 7.66290643 10.46962862 -3 4 C-2.01 3.67 -1.02 3.34 0 3 C0 2.01 0 1.02 0 0 Z " fill="#2EA2EA" transform="translate(43,88)"/>
<path d="M0 0 C2.234375 0.97265625 2.234375 0.97265625 4.234375 2.97265625 C4.27501332 4.6388274 4.277096 6.3065372 4.234375 7.97265625 C4.564375 8.30265625 4.894375 8.63265625 5.234375 8.97265625 C5.564375 7.32265625 5.894375 5.67265625 6.234375 3.97265625 C6.894375 3.97265625 7.554375 3.97265625 8.234375 3.97265625 C8.234375 4.63265625 8.234375 5.29265625 8.234375 5.97265625 C9.306875 6.05515625 10.379375 6.13765625 11.484375 6.22265625 C15.59040975 7.0438632 16.85864519 7.59180999 19.234375 10.97265625 C19.984375 14.22265625 19.984375 14.22265625 20.234375 16.97265625 C21.1625 17.05515625 22.090625 17.13765625 23.046875 17.22265625 C26.234375 17.97265625 26.234375 17.97265625 28.109375 20.03515625 C28.480625 20.67453125 28.851875 21.31390625 29.234375 21.97265625 C28.244375 22.46765625 28.244375 22.46765625 27.234375 22.97265625 C27.069375 23.94203125 26.904375 24.91140625 26.734375 25.91015625 C25.201287 31.84469046 20.06865711 36.50063572 15.234375 39.97265625 C11.90625 40.2578125 11.90625 40.2578125 9.234375 39.97265625 C9.234375 41.29265625 9.234375 42.61265625 9.234375 43.97265625 C7.359375 43.34765625 7.359375 43.34765625 5.234375 41.97265625 C3.984375 38.84765625 3.984375 38.84765625 3.234375 35.97265625 C1.584375 35.97265625 -0.065625 35.97265625 -1.765625 35.97265625 C-2.054375 35.18890625 -2.343125 34.40515625 -2.640625 33.59765625 C-3.61474754 30.87593993 -3.61474754 30.87593993 -5.765625 28.97265625 C-5.77205362 25.30191549 -4.47784007 23.41729133 -2.04296875 20.859375 C-0.93974077 19.78257165 0.17392234 18.71637344 1.296875 17.66015625 C1.86470703 17.11037109 2.43253906 16.56058594 3.01757812 15.99414062 C4.41428425 14.6443826 5.82316337 13.307241 7.234375 11.97265625 C4.264375 11.47765625 4.264375 11.47765625 1.234375 10.97265625 C0.698125 11.69453125 0.161875 12.41640625 -0.390625 13.16015625 C-6.66538634 20.59079467 -6.66538634 20.59079467 -11.515625 21.47265625 C-13.765625 20.97265625 -13.765625 20.97265625 -15.765625 17.97265625 C-15.73779995 13.0128418 -13.97879359 10.52400702 -10.65625 7.13085938 C-10.11484375 6.60427734 -9.5734375 6.07769531 -9.015625 5.53515625 C-8.4896875 4.98150391 -7.96375 4.42785156 -7.421875 3.85742188 C-3.50555901 -0.03465948 -3.50555901 -0.03465948 0 0 Z " fill="#29A0E9" transform="translate(94.765625,116.02734375)"/>
<path d="M0 0 C2.64 0.33 5.28 0.66 8 1 C7.0409375 1.9590625 7.0409375 1.9590625 6.0625 2.9375 C5.39541016 3.61619141 5.39541016 3.61619141 4.71484375 4.30859375 C3.38227544 5.62294928 2.01251202 6.89963896 0.62890625 8.16015625 C-0.19738281 8.93230469 -1.02367188 9.70445312 -1.875 10.5 C-3.07769531 11.59828125 -3.07769531 11.59828125 -4.3046875 12.71875 C-6.2948975 14.88188497 -6.2948975 14.88188497 -5.82421875 17.64453125 C-5.04140451 19.88167336 -4.08719712 21.89808558 -3 24 C-3 24.66 -3 25.32 -3 26 C-1.68 26.33 -0.36 26.66 1 27 C-3.14524671 27.49348175 -4.779961 27.13854307 -8.375 24.875 C-11 22 -11 22 -11.375 18.6875 C-11.25125 17.800625 -11.1275 16.91375 -11 16 C-12.0725 15.938125 -13.145 15.87625 -14.25 15.8125 C-18 15 -18 15 -20.4375 12.6875 C-22 10 -22 10 -22 6 C-23.65 5.67 -25.3 5.34 -27 5 C-27 4.67 -27 4.34 -27 4 C-19.25 2.875 -19.25 2.875 -17 4 C-16.27306096 5.97888961 -15.60183749 7.97954558 -15 10 C-12.66834966 10.33498301 -12.66834966 10.33498301 -10 10 C-7.81222534 8.0624994 -7.81222534 8.0624994 -6 6 C-5.34 6 -4.68 6 -4 6 C-3.67 5.01 -3.34 4.02 -3 3 C-2.34 3 -1.68 3 -1 3 C-0.67 2.01 -0.34 1.02 0 0 Z " fill="#2EA2EA" transform="translate(96,126)"/>
<path d="M0 0 C2.234375 0.97265625 2.234375 0.97265625 4.234375 2.97265625 C4.171875 6.34765625 4.171875 6.34765625 3.234375 9.97265625 C0.984375 12.09765625 0.984375 12.09765625 -1.765625 13.97265625 C-3.45178282 15.6196011 -5.12132671 17.28391746 -6.765625 18.97265625 C-8.765625 20.97265625 -8.765625 20.97265625 -11.265625 21.28515625 C-12.090625 21.18203125 -12.915625 21.07890625 -13.765625 20.97265625 C-15.765625 17.97265625 -15.765625 17.97265625 -15.75 15.1875 C-14.43456314 10.89145025 -12.18693701 8.61963472 -9.015625 5.53515625 C-8.4896875 4.98150391 -7.96375 4.42785156 -7.421875 3.85742188 C-3.50555901 -0.03465948 -3.50555901 -0.03465948 0 0 Z " fill="#F1F8FD" transform="translate(94.765625,116.02734375)"/>
<path d="M0 0 C2.4375 1.375 2.4375 1.375 3.27734375 3.71484375 C3.4375 6.375 3.4375 6.375 2.25 8.40234375 C0.33529335 10.42021347 -1.58022968 12.4231093 -3.5625 14.375 C-4.47902344 15.30699219 -4.47902344 15.30699219 -5.4140625 16.2578125 C-9.76104651 20.375 -9.76104651 20.375 -13.375 20.375 C-15.5625 19.375 -15.5625 19.375 -17.5625 17.375 C-17.5561547 13.74548722 -16.30459021 11.84648165 -13.91015625 9.296875 C-12.82526376 8.22916108 -11.72982183 7.17207853 -10.625 6.125 C-10.07392578 5.58359375 -9.52285156 5.0421875 -8.95507812 4.484375 C-3.47088221 -0.84655664 -3.47088221 -0.84655664 0 0 Z " fill="#F3F9FD" transform="translate(106.5625,127.625)"/>
<path d="M0 0 C2.7578125 0.44921875 2.7578125 0.44921875 4.7578125 2.44921875 C5.203125 4.7109375 5.203125 4.7109375 4.7578125 7.44921875 C3.10203797 9.63236631 1.57492066 11.37747133 -0.3671875 13.26171875 C-0.8415625 13.76380859 -1.3159375 14.26589844 -1.8046875 14.78320312 C-4.34752277 17.30885708 -5.90231185 18.40212755 -9.484375 18.8984375 C-12.2421875 18.44921875 -12.2421875 18.44921875 -14.2421875 16.44921875 C-14.6875 14.1875 -14.6875 14.1875 -14.2421875 11.44921875 C-12.58641297 9.26607119 -11.05929566 7.52096617 -9.1171875 5.63671875 C-8.6428125 5.13462891 -8.1684375 4.63253906 -7.6796875 4.11523438 C-5.13685223 1.58958042 -3.58206315 0.49630995 0 0 Z " fill="#F4FAFE" transform="translate(82.2421875,107.55078125)"/>
<path d="M0 0 C3.375 -0.1875 3.375 -0.1875 7 0 C9 3 9 3 8.88671875 5.38671875 C7.77791033 8.65452858 6.23472367 10.36593238 3.8125 12.8125 C3.05582031 13.60269531 2.29914063 14.39289063 1.51953125 15.20703125 C-1.58485756 17.41620096 -3.26618073 17.51126986 -7 17 C-9 15 -9 15 -9.37109375 12.63671875 C-8.88413636 9.17675835 -7.6200363 8.13630715 -5.0625 5.8125 C-2.12442614 3.21289233 -2.12442614 3.21289233 0 0 Z " fill="#F4FAFD" transform="translate(112,138)"/>
<path d="M0 0 C-0.33 1.98 -0.66 3.96 -1 6 C-1.66 6 -2.32 6 -3 6 C-3.33 6.66 -3.66 7.32 -4 8 C-4.33 7.01 -4.66 6.02 -5 5 C-7.23085067 5.25659311 -9.45967123 5.53087314 -11.6875 5.8125 C-12.92886719 5.96332031 -14.17023438 6.11414062 -15.44921875 6.26953125 C-18.95468383 6.99067753 -21.04600477 8.05728242 -24 10 C-24.66 10 -25.32 10 -26 10 C-26 8.68 -26 7.36 -26 6 C-27.98 6.33 -29.96 6.66 -32 7 C-24.21541397 1.81027598 -9.13962192 -4.56981096 0 0 Z " fill="#38A7EB" transform="translate(125,45)"/>
<path d="M0 0 C3.84650684 -0.30772055 6.49223953 -0.21761163 10.0625 1.3125 C13.6933162 4.63431057 15.52264719 8.16638389 17.703125 12.5390625 C18.89194156 15.08920788 18.89194156 15.08920788 21 17 C20.625 20.125 20.625 20.125 20 23 C15.97449681 21.6581656 15.11714364 19.5772427 13 16 C13 15.34 13 14.68 13 14 C12.34 14 11.68 14 11 14 C10.32845067 12.71086513 9.66291141 11.41859796 9 10.125 C8.62875 9.40570313 8.2575 8.68640625 7.875 7.9453125 C7 6 7 6 7 4 C4.69 4 2.38 4 0 4 C0 2.68 0 1.36 0 0 Z " fill="#2BA1EA" transform="translate(137,69)"/>
<path d="M0 0 C1.36676632 0.13929356 2.7374567 0.24365301 4.109375 0.31640625 C5.24052734 0.37924805 5.24052734 0.37924805 6.39453125 0.44335938 C7.56048828 0.50233398 7.56048828 0.50233398 8.75 0.5625 C9.93916016 0.62727539 9.93916016 0.62727539 11.15234375 0.69335938 C13.10137815 0.79902991 15.05066748 0.89997966 17 1 C17 1.33 17 1.66 17 2 C15.96359375 2.04898438 14.9271875 2.09796875 13.859375 2.1484375 C12.48955792 2.22349597 11.11976752 2.29904247 9.75 2.375 C9.06808594 2.4059375 8.38617188 2.436875 7.68359375 2.46875 C3.94944776 2.68627307 1.24886835 3.1669229 -2 5 C-2.99 5 -3.98 5 -5 5 C-5 8.96 -5 12.92 -5 17 C-6.65 17 -8.3 17 -10 17 C-10 17.66 -10 18.32 -10 19 C-10.99 18.67 -11.98 18.34 -13 18 C-12.67 17.67 -12.34 17.34 -12 17 C-11.76924918 15.65252916 -11.58846937 14.29622435 -11.4375 12.9375 C-11.2209375 10.9884375 -11.2209375 10.9884375 -11 9 C-11.99 8.67 -12.98 8.34 -14 8 C-12.68 8 -11.36 8 -10 8 C-10 9.98 -10 11.96 -10 14 C-9.34 14 -8.68 14 -8 14 C-8 13.01 -8 12.02 -8 11 C-7.34 11 -6.68 11 -6 11 C-6 8.36 -6 5.72 -6 3 C-6.33 3.33 -6.66 3.66 -7 4 C-8.32 4 -9.64 4 -11 4 C-11 3.34 -11 2.68 -11 2 C-4.4416639 -1.1530462 -4.4416639 -1.1530462 0 0 Z " fill="#51B2EE" transform="translate(193,91)"/>
<path d="M0 0 C3.96 1.32 7.92 2.64 12 4 C11.67 5.32 11.34 6.64 11 8 C12.32 8.33 13.64 8.66 15 9 C14.67 9.99 14.34 10.98 14 12 C14 11.34 14 10.68 14 10 C12.52853516 9.84724609 12.52853516 9.84724609 11.02734375 9.69140625 C6.62206517 9.06208074 2.68548362 7.56330598 -1.4375 5.9375 C-2.16904297 5.65583984 -2.90058594 5.37417969 -3.65429688 5.08398438 C-5.43873546 4.39586753 -7.21973905 3.69885394 -9 3 C-5.98968256 2.06576355 -5.13349732 1.95550089 -2 3 C-1.67 2.34 -1.34 1.68 -1 1 C-0.67 0.67 -0.34 0.34 0 0 Z " fill="#3AA7EB" transform="translate(163,106)"/>
<path d="M0 0 C4.87440007 0.48744001 9.33909281 1.57319168 14 3 C12 5 12 5 10 6 C14.95 7.65 19.9 9.3 25 11 C19.40455391 12.39886152 15.66568421 10.61360479 10.3125 8.8125 C8.84973633 8.35520508 8.84973633 8.35520508 7.35742188 7.88867188 C6.43123047 7.58123047 5.50503906 7.27378906 4.55078125 6.95703125 C3.27714722 6.53901245 3.27714722 6.53901245 1.9777832 6.11254883 C0 5 0 5 -0.84692383 2.94018555 C-0.89743896 2.29992432 -0.9479541 1.65966309 -1 1 C-0.67 0.67 -0.34 0.34 0 0 Z " fill="#4EB0ED" transform="translate(121,126)"/>
<path d="M0 0 C-0.33 1.65 -0.66 3.3 -1 5 C-4.61867559 6.2062252 -7.92506251 6.10816918 -11.6875 6.0625 C-12.38939453 6.05798828 -13.09128906 6.05347656 -13.81445312 6.04882812 C-15.54300538 6.03706927 -17.27151365 6.01913454 -19 6 C-19.33 5.34 -19.66 4.68 -20 4 C-19.01 4 -18.02 4 -17 4 C-17 3.34 -17 2.68 -17 2 C-14.54187409 1.66507287 -12.08352273 1.3319903 -9.625 1 C-8.92632812 0.90460937 -8.22765625 0.80921875 -7.5078125 0.7109375 C-2.2265625 0 -2.2265625 0 0 0 Z " fill="#1E9AE9" transform="translate(99,51)"/>
<path d="M0 0 C-0.59001356 3.9825915 -1.93996026 6.37710879 -5 9 C-8.70169817 9.43204258 -12.29040377 9.2878135 -16 9 C-15.67 7.68 -15.34 6.36 -15 5 C-13.948125 4.731875 -12.89625 4.46375 -11.8125 4.1875 C-7.56987687 2.86602722 -4.40550914 0 0 0 Z " fill="#219DE9" transform="translate(85,121)"/>
<path d="M0 0 C4.11878582 -0.32950287 6.64358121 -0.16200854 10.4375 1.5625 C13 4 13 4 13.375 7.75 C13.25125 8.8225 13.1275 9.895 13 11 C12.01 11 11.02 11 10 11 C7 6.77777778 7 6.77777778 7 4 C4.69 4 2.38 4 0 4 C0 2.68 0 1.36 0 0 Z " fill="#209CE9" transform="translate(137,69)"/>
<path d="M0 0 C1.5778125 1.175625 1.5778125 1.175625 3.1875 2.375 C6.01696802 4.40508579 8.67338936 5.89112979 12 7 C12 7.66 12 8.32 12 9 C10.35 9.33 8.7 9.66 7 10 C9.97 10 12.94 10 16 10 C16 10.33 16 10.66 16 11 C6.42331839 11.76681614 6.42331839 11.76681614 2.93359375 9.88671875 C1.3125 8.5 1.3125 8.5 -1 6 C-0.01 5.67 0.98 5.34 2 5 C2 4.34 2 3.68 2 3 C1.34 3 0.68 3 0 3 C0 2.01 0 1.02 0 0 Z " fill="#37A6EB" transform="translate(168,37)"/>
<path d="M0 0 C0.7940625 -0.01417969 1.588125 -0.02835937 2.40625 -0.04296875 C4.5 0.1875 4.5 0.1875 6.5 2.1875 C6.125 4.8125 6.125 4.8125 5.5 7.1875 C5.12875 6.6925 4.7575 6.1975 4.375 5.6875 C1.70688376 3.55300701 -0.16083177 3.91491484 -3.5 4.1875 C-5.76566343 4.62691523 -5.76566343 4.62691523 -7.5 5.1875 C-7.5 5.8475 -7.5 6.5075 -7.5 7.1875 C-8.16 6.8575 -8.82 6.5275 -9.5 6.1875 C-6.75729691 1.32543543 -5.58444584 0.04532829 0 0 Z M-10.5 7.1875 C-10.5 8.1775 -10.5 9.1675 -10.5 10.1875 C-11.49 10.6825 -11.49 10.6825 -12.5 11.1875 C-11.84 9.8675 -11.18 8.5475 -10.5 7.1875 Z " fill="#1E9BE8" transform="translate(82.5,102.8125)"/>
<path d="M0 0 C5.61 0 11.22 0 17 0 C17 1.32 17 2.64 17 4 C13.37 4 9.74 4 6 4 C5.67 3.01 5.34 2.02 5 1 C3.35 1.33 1.7 1.66 0 2 C0 1.34 0 0.68 0 0 Z " fill="#1C9AE8" transform="translate(129,147)"/>
<path d="M0 0 C0.99 0 1.98 0 3 0 C1.49755564 3.82440382 -0.52010111 5.83472958 -4 8 C-8.57438521 8.4901127 -11.86763795 8.00356948 -16 6 C-11.99799622 4.39919849 -8.95443764 5.70720308 -5 7 C-5.33 6.01 -5.66 5.02 -6 4 C-7.32 3.34 -8.64 2.68 -10 2 C-6.7 2 -3.4 2 0 2 C0 1.34 0 0.68 0 0 Z " fill="#4BAFEC" transform="translate(126,87)"/>
<path d="M0 0 C0.66 0.33 1.32 0.66 2 1 C1.67 3.64 1.34 6.28 1 9 C0.34 9 -0.32 9 -1 9 C-1 9.99 -1 10.98 -1 12 C-1.66 12 -2.32 12 -3 12 C-3 9.69 -3 7.38 -3 5 C-4.65 5 -6.3 5 -8 5 C-7.34 4.67 -6.68 4.34 -6 4 C-6 3.34 -6 2.68 -6 2 C-4.02 2 -2.04 2 0 2 C0 1.34 0 0.68 0 0 Z " fill="#1B99E7" transform="translate(186,93)"/>
<path d="M0 0 C6.27 0.66 12.54 1.32 19 2 C19 2.33 19 2.66 19 3 C15.37 3 11.74 3 8 3 C8 3.66 8 4.32 8 5 C5.39417629 5.93065133 4.35801776 6.14917407 1.75 5.0625 C1.1725 4.711875 0.595 4.36125 0 4 C0 2.68 0 1.36 0 0 Z " fill="#3EA9EC" transform="translate(74,50)"/>
<path d="M0 0 C0.309375 0.928125 0.309375 0.928125 0.625 1.875 C2.54775888 4.84653645 4.66594527 5.13024659 8 6 C8 6.33 8 6.66 8 7 C6.02 7 4.04 7 2 7 C2 8.32 2 9.64 2 11 C0.125 10.375 0.125 10.375 -2 9 C-3.25 5.875 -3.25 5.875 -4 3 C-2.68 2.67 -1.36 2.34 0 2 C0 1.34 0 0.68 0 0 Z " fill="#3BA8EB" transform="translate(102,149)"/>
<path d="M0 0 C1.43655854 -0.08131463 2.8744483 -0.13933559 4.3125 -0.1875 C5.51326172 -0.23970703 5.51326172 -0.23970703 6.73828125 -0.29296875 C9.47851584 0.06198392 10.29171079 0.89366282 12 3 C10.02 3 8.04 3 6 3 C6.66 3.33 7.32 3.66 8 4 C7.67 4.99 7.34 5.98 7 7 C6.01 6.67 5.02 6.34 4 6 C4 5.34 4 4.68 4 4 C1.525 3.01 1.525 3.01 -1 2 C-0.67 1.34 -0.34 0.68 0 0 Z " fill="#1999E7" transform="translate(162,124)"/>
<path d="M0 0 C-0.375 1.9375 -0.375 1.9375 -1 4 C-3.95664519 5.4783226 -6.74229737 5.06032783 -10 5 C-10.33 4.01 -10.66 3.02 -11 2 C-8.56079856 -0.43920144 -3.28707881 0 0 0 Z " fill="#1A99E7" transform="translate(103,147)"/>
<path d="M0 0 C1.65 0.33 3.3 0.66 5 1 C4.67 2.32 4.34 3.64 4 5 C5.32 5.33 6.64 5.66 8 6 C7.67 6.99 7.34 7.98 7 9 C7 8.34 7 7.68 7 7 C5.948125 6.87625 4.89625 6.7525 3.8125 6.625 C0.54041229 6.08859218 -2.00536076 5.36119965 -5 4 C-4.0409375 3.8453125 -4.0409375 3.8453125 -3.0625 3.6875 C-2.381875 3.460625 -1.70125 3.23375 -1 3 C-0.67 2.01 -0.34 1.02 0 0 Z " fill="#45ACEE" transform="translate(170,109)"/>
<path d="M0 0 C0 1.32 0 2.64 0 4 C2.31 4 4.62 4 7 4 C6.67 4.66 6.34 5.32 6 6 C3.69 6 1.38 6 -1 6 C-1.33 6.66 -1.66 7.32 -2 8 C-5 7 -5 7 -7 6 C-5.81636731 2.44910192 -3.99368042 0 0 0 Z " fill="#3BA8EC" transform="translate(137,69)"/>
<path d="M0 0 C0.33 0 0.66 0 1 0 C1.50579714 3.04080421 2.00480759 6.08246646 2.5 9.125 C2.64308594 9.9809375 2.78617188 10.836875 2.93359375 11.71875 C3.65695734 16.19671505 4.17918816 20.44563435 4 25 C3.67 25 3.34 25 3 25 C2.31974363 23.00458132 1.65509503 21.00382009 1 19 C0.814375 18.4328125 0.62875 17.865625 0.4375 17.28125 C-0.20209936 13.94619621 -0.1040408 10.63078195 -0.0625 7.25 C-0.05798828 6.55261719 -0.05347656 5.85523437 -0.04882812 5.13671875 C-0.0371002 3.42444197 -0.01916653 1.71220967 0 0 Z " fill="#50B1EF" transform="translate(233,59)"/>
<path d="M0 0 C6.75 0.875 6.75 0.875 9 2 C8 4 8 4 6.25 4.6875 C3.60760177 5.05449975 1.57327078 4.64331769 -1 4 C-0.67 2.68 -0.34 1.36 0 0 Z " fill="#1E9AE9" transform="translate(154,104)"/>
<path d="M0 0 C2.33944736 0.28730055 4.6739143 0.61936779 7 1 C6.67 2.32 6.34 3.64 6 5 C4.02 5 2.04 5 0 5 C-0.5625 3.0625 -0.5625 3.0625 -1 1 C-0.67 0.67 -0.34 0.34 0 0 Z " fill="#2BA1EB" transform="translate(121,126)"/>
<path d="M0 0 C0.66 0 1.32 0 2 0 C2.66 2.31 3.32 4.62 4 7 C1.69 7.33 -0.62 7.66 -3 8 C-3 7.01 -3 6.02 -3 5 C-2.34 5 -1.68 5 -1 5 C-0.67 3.35 -0.34 1.7 0 0 Z " fill="#1999E7" transform="translate(101,120)"/>
<path d="M0 0 C0.45375 0.474375 0.9075 0.94875 1.375 1.4375 C3.22977487 3.22093737 4.50135592 3.5691993 7 4 C6.67 4.66 6.34 5.32 6 6 C-0.625 5.25 -0.625 5.25 -4 3 C-4 2.34 -4 1.68 -4 1 C-2 0 -2 0 0 0 Z " fill="#1C9AE8" transform="translate(166,93)"/>
<path d="M0 0 C2.64 0.33 5.28 0.66 8 1 C8 2.32 8 3.64 8 5 C1.25 4.125 1.25 4.125 -1 3 C-0.67 2.01 -0.34 1.02 0 0 Z " fill="#1B9AE9" transform="translate(113,89)"/>
<path d="M0 0 C2.89932357 2.39509338 3.50168276 4.31245243 4 8 C3.01 8 2.02 8 1 8 C0.67 8.66 0.34 9.32 0 10 C0 9.34 0 8.68 0 8 C-0.66 8 -1.32 8 -2 8 C-2 7.01 -2 6.02 -2 5 C-1.34 5 -0.68 5 0 5 C0 3.35 0 1.7 0 0 Z " fill="#3FA9ED" transform="translate(150,75)"/>
<path d="M0 0 C2.4375 0.625 2.4375 0.625 5 2 C5.8125 5.125 5.8125 5.125 6 8 C4.125 7.6875 4.125 7.6875 2 7 C0 4 0 4 0 0 Z " fill="#239DE9" transform="translate(56,98)"/>
<path d="M0 0 C1.5 1.3125 1.5 1.3125 3 3 C3 3.99 3 4.98 3 6 C4.32 6.33 5.64 6.66 7 7 C4.25 7.25 4.25 7.25 1 7 C-1.375 5 -1.375 5 -3 3 C-2.34 3 -1.68 3 -1 3 C-0.67 2.01 -0.34 1.02 0 0 Z " fill="#39A6EB" transform="translate(90,146)"/>
<path d="M0 0 C1.98 1.65 3.96 3.3 6 5 C5.67 5.66 5.34 6.32 5 7 C4.34 6.67 3.68 6.34 3 6 C2.67 7.32 2.34 8.64 2 10 C1.01 8.35 0.02 6.7 -1 5 C-0.34 5 0.32 5 1 5 C0.67 3.35 0.34 1.7 0 0 Z " fill="#39A7E8" transform="translate(61,101)"/>
<path d="M0 0 C0.66 0.33 1.32 0.66 2 1 C2 1.99 2 2.98 2 4 C2.66 4 3.32 4 4 4 C3 6 3 6 -0.0625 7.125 C-1.031875 7.41375 -2.00125 7.7025 -3 8 C-3.1875 5.125 -3.1875 5.125 -3 2 C-2.01 1.34 -1.02 0.68 0 0 Z " fill="#30A2EA" transform="translate(187,39)"/>
<path d="M0 0 C1.98 0 3.96 0 6 0 C6.33 1.32 6.66 2.64 7 4 C4.69 4 2.38 4 0 4 C0 2.68 0 1.36 0 0 Z " fill="#1A99E8" transform="translate(104,156)"/>
<path d="M0 0 C0.33 0.99 0.66 1.98 1 3 C3.00016466 4.20882096 3.00016466 4.20882096 5 5 C4.67 5.99 4.34 6.98 4 8 C4.33 8.66 4.66 9.32 5 10 C2.525 9.01 2.525 9.01 0 8 C0 7.01 0 6.02 0 5 C-0.66 4.34 -1.32 3.68 -2 3 C-1.34 3 -0.68 3 0 3 C0 2.01 0 1.02 0 0 Z " fill="#37A6EA" transform="translate(60,39)"/>
<path d="M0 0 C0.99 0.33 1.98 0.66 3 1 C2.01 3.64 1.02 6.28 0 9 C-0.99 8.34 -1.98 7.68 -3 7 C-3 5 -3 5 -1 3 C-0.67 2.01 -0.34 1.02 0 0 Z " fill="#34A5EB" transform="translate(131,78)"/>
<path d="M0 0 C1.65 0.99 3.3 1.98 5 3 C4.34 3.66 3.68 4.32 3 5 C3 5.66 3 6.32 3 7 C-1.875 5.25 -1.875 5.25 -3 3 C-2.01 2.67 -1.02 2.34 0 2 C0 1.34 0 0.68 0 0 Z " fill="#37A6EC" transform="translate(54,95)"/>
<path d="M0 0 C2 2 2 2 2.125 4.625 C2.08375 5.40875 2.0425 6.1925 2 7 C1.01 7.495 1.01 7.495 0 8 C-0.65213292 10.02463255 -0.65213292 10.02463255 -1 12 C-1.33 12 -1.66 12 -2 12 C-1 3.42857143 -1 3.42857143 0 0 Z " fill="#34A5EA" transform="translate(124,138)"/>
<path d="M0 0 C0.66 0.33 1.32 0.66 2 1 C2.33 1.99 2.66 2.98 3 4 C2.01 4.33 1.02 4.66 0 5 C-0.33 5.66 -0.66 6.32 -1 7 C-0.34 7.33 0.32 7.66 1 8 C0.01 8.33 -0.98 8.66 -2 9 C-3 6 -3 6 -1.5625 2.8125 C-1.046875 1.884375 -0.53125 0.95625 0 0 Z " fill="#1E9BE9" transform="translate(131,74)"/>
<path d="M0 0 C0.99 0.33 1.98 0.66 3 1 C1.35 2.65 -0.3 4.3 -2 6 C-3.32 5.34 -4.64 4.68 -6 4 C-3.1875 1.9375 -3.1875 1.9375 0 0 Z " fill="#35A5EB" transform="translate(215,10)"/>
<path d="M0 0 C0.66 1.32 1.32 2.64 2 4 C1.34 3.67 0.68 3.34 0 3 C-4.14503661 2.75212983 -4.14503661 2.75212983 -8 4 C-8.66 3.34 -9.32 2.68 -10 2 C-6.5980513 -0.09350689 -3.94727588 -0.17942163 0 0 Z " fill="#38A6EC" transform="translate(85,106)"/>
<path d="M0 0 C0.99 0.33 1.98 0.66 3 1 C4.89212737 1.22179785 6.78884472 1.40614015 8.6875 1.5625 C9.68136719 1.64628906 10.67523438 1.73007813 11.69921875 1.81640625 C12.83810547 1.90728516 12.83810547 1.90728516 14 2 C14 2.33 14 2.66 14 3 C8.06 3.495 8.06 3.495 2 4 C1.34 2.68 0.68 1.36 0 0 Z " fill="#3EAAED" transform="translate(166,93)"/>
<path d="M0 0 C2.31 0 4.62 0 7 0 C6.67 0.99 6.34 1.98 6 3 C4.35 3 2.7 3 1 3 C0.67 2.01 0.34 1.02 0 0 Z " fill="#1C9BE8" transform="translate(163,109)"/>
<path d="M0 0 C2.475 0.99 2.475 0.99 5 2 C4.67 2.66 4.34 3.32 4 4 C2.35 4 0.7 4 -1 4 C-0.67 2.68 -0.34 1.36 0 0 Z " fill="#1A99E9" transform="translate(70,126)"/>
<path d="M0 0 C1.65 0 3.3 0 5 0 C4.625 2.4375 4.625 2.4375 4 5 C3.01 5.495 3.01 5.495 2 6 C1.34 4.02 0.68 2.04 0 0 Z " fill="#3FA9EE" transform="translate(168,127)"/>
</svg>
